<?xml version="1.0" standalone="no"?>
<!DOCTYPE svg PUBLIC "-//W3C//DTD SVG 1.1//EN" "http://www.w3.org/Graphics/SVG/1.1/DTD/svg11.dtd" >
<svg xmlns="http://www.w3.org/2000/svg">
<metadata>
Created by FontPrep 20130207 at Thu Mar 26 11:02:44 2015
 By Sergey Khabaroff
Copyright (c) 2009 by abstrkt. All rights reserved.
</metadata>
<defs>
<font id="2452e478824e772c4ac0bd5209d63f6c" horiz-adv-x='1024' >
  <font-face 
    font-family="VremenaGroteskMedium"
    font-weight="400"
    font-stretch="normal"
    units-per-em="2048"
    panose-1="0 0 0 0 0 0 0 0 0 0"
    ascent="1536"
    descent="-512"
    x-height="1065"
    cap-height="1475"
    bbox="-125 -752 9472 2120"
    underline-thickness="102"
    underline-position="-102"
    unicode-range="U+0020-2122"
  />
<missing-glyph horiz-adv-x="569" 
 />
    <glyph glyph-name=".notdef" horiz-adv-x="569" 
 />
    <glyph glyph-name=".null" horiz-adv-x="0" 
 />
    <glyph glyph-name="nonmarkingreturn" horiz-adv-x="681" 
 />
    <glyph glyph-name="space" unicode=" " horiz-adv-x="569" 
 />
    <glyph glyph-name="exclam" unicode="!" horiz-adv-x="518" 
d="M395 0h-272v276h272v-276zM360 436h-200l-45 1039h288z" />
    <glyph glyph-name="quotedbl" unicode="&#x22;" horiz-adv-x="903" 
d="M745 987h-200l-45 488h288zM360 987h-200l-45 488h288z" />
    <glyph glyph-name="numbersign" unicode="#" horiz-adv-x="1339" 
d="M618 883l-81 -281h186l80 281h-185zM819 0h-268l106 377h-184l-108 -377h-269l107 377h-203l70 225h198l80 281h-217l70 225h213l104 367h270l-106 -367h184l107 367h270l-106 -367h202l-69 -225h-197l-82 -281h217l-69 -225h-211z" />
    <glyph glyph-name="dollar" unicode="$" 
d="M385 1097q0 -120 131 -171v323q-131 -32 -131 -152zM838 412q0 121 -115 178q-4 4 -53 24v-391q76 11 122 59t46 130zM516 1679h154v-180q387 -43 413 -446q-141 -6 -282 -15q-23 168 -131 205v-352q463 -94 463 -469q-1 -199 -135 -318t-328 -133v-176h-154v180
q-420 47 -453 490l279 16q16 -211 174 -252v420q-408 74 -407 416q1 195 117 307t290 129v178z" />
    <glyph glyph-name="ampersand" unicode="&#x26;" horiz-adv-x="1302" 
d="M336 385q0 -90 59 -142t140 -53q125 0 206 72q-94 113 -286 338q-119 -98 -119 -215zM713 1140q0 64 -38 104t-110 40q-71 0 -113 -48t-42 -110q0 -100 84 -204l20 -27q119 80 159 131q40 50 40 114zM528 -31q-212 0 -329 112t-117 290q0 229 231 395q-95 117 -121 203
t-26 157q0 176 114 278t310 101q196 0 286 -121q80 -105 80 -237q0 -207 -221 -363q-25 -18 -82 -55q35 -41 104 -125t103 -125q31 106 21 232h239q12 -244 -86 -439q37 -45 114 -136t114 -136h-299q-55 66 -76 90q-147 -121 -359 -121z" />
    <glyph glyph-name="quotesingle" unicode="'" horiz-adv-x="518" 
d="M360 987h-200l-45 488h288z" />
    <glyph glyph-name="parenleft" unicode="(" horiz-adv-x="694" 
d="M102 737q0 260 97 512q96 252 268 430h215q-158 -219 -228 -441t-71 -501q0 -279 71 -501t228 -441h-215q-172 178 -268 430q-97 252 -97 512z" />
    <glyph glyph-name="parenright" unicode=")" horiz-adv-x="694" 
d="M592 737q0 -260 -96 -512t-269 -430h-215q158 219 229 441t71 502q0 278 -71 500t-229 441h215q173 -178 269 -430t96 -512z" />
    <glyph glyph-name="asterisk" unicode="*" horiz-adv-x="827" 
d="M528 1505l-34 -215q29 14 83 40t111 54q10 -34 35 -106t35 -107q-143 -25 -215 -34q31 -31 151 -156l-182 -131l-98 194l-103 -192l-184 131q87 94 154 156q-186 33 -211 37q54 158 69 213q81 -39 193 -99q-20 143 -29 215h225z" />
    <glyph glyph-name="plus" unicode="+" 
d="M717 629v-396h-240v396h-375v225h375v395h240v-395h377v-225h-377z" />
    <glyph glyph-name="comma" unicode="," horiz-adv-x="509" 
d="M260 0h-141v276h276v-276q0 -231 -188 -313l-68 114q121 52 121 199z" />
    <glyph glyph-name="hyphen" unicode="-" horiz-adv-x="757" 
d="M655 408h-553v247h553v-247z" />
    <glyph glyph-name="period" unicode="." horiz-adv-x="501" 
d="M387 0h-272v276h272v-276z" />
    <glyph glyph-name="slash" unicode="/" horiz-adv-x="780" 
d="M274 -205h-274l504 1884h276z" />
    <glyph glyph-name="zero" unicode="0" 
d="M598 1280q-128 0 -196 -152t-68 -354q0 -201 31 -319l335 790q-45 35 -102 35zM862 701q0 202 -33 321l-335 -793q45 -35 104 -34q129 0 197 152q67 152 67 354zM78 737q0 346 127 557t393 211t393 -211t127 -557t-127 -557t-393 -211t-393 211t-127 557z" />
    <glyph glyph-name="one" unicode="1" 
d="M821 1475v-1475h-280v1008q-74 -158 -297 -158v260q150 14 254 122t129 243h194z" />
    <glyph glyph-name="two" unicode="2" 
d="M1063 260v-260h-948q-4 203 54 321q33 69 59 111q44 73 188 191q34 27 150 118t174 163t58 162q0 91 -54 140t-146 49t-152 -61t-61 -180l-256 35q12 211 137 333t338 123q213 -1 339 -113t126 -327q0 -268 -358 -524q-137 -98 -199 -158t-68 -123h619z" />
    <glyph glyph-name="three" unicode="3" 
d="M471 926h100q86 0 129 50t43 130t-44 125q-43 45 -123 45t-130 -58t-51 -155l-262 39q14 182 139 293t314 111q190 0 314 -100q124 -99 124 -280q0 -240 -221 -309q131 -33 204 -137t72 -252q0 -209 -138 -334t-352 -125t-349 115t-144 303l279 27q4 -86 61 -140
q56 -54 152 -55t156 61t60 168t-58 172q-60 67 -175 66h-100v240z" />
    <glyph glyph-name="four" unicode="4" 
d="M659 559v475l-313 -475h313zM940 0h-281v307h-583v252l616 916h248v-916h184v-252h-184v-307z" />
    <glyph glyph-name="five" unicode="5" 
d="M588 219q104 0 167 79q62 79 62 201q0 123 -62 195q-63 72 -191 72t-204 -123l-256 35l142 797h770v-261h-567l-52 -274q82 76 234 76q219 0 345 -146t126 -373q0 -226 -141 -377t-390 -151q-203 0 -339 112t-154 302l268 45q14 -96 76 -152t166 -57z" />
    <glyph glyph-name="six" unicode="6" 
d="M606 707q-100 0 -164 -70t-63 -175q0 -105 61 -174q60 -69 162 -69t163 69q60 69 60 175t-60 175q-59 69 -159 69zM621 1262q-125 0 -189 -128t-67 -321q89 135 283 135t314 -136t120 -342t-126 -353q-125 -147 -338 -148q-514 0 -514 717q0 401 136 610t385 209
q180 0 284 -96t133 -254l-237 -63q-25 88 -68 129t-116 41z" />
    <glyph glyph-name="seven" unicode="7" 
d="M117 1214v261h946v-261q-416 -463 -459 -1214h-282q6 326 130 662t320 552h-655z" />
    <glyph glyph-name="eight" unicode="8" 
d="M430 1094q0 -80 45 -131t122 -51t122 50q45 52 45 132t-45 131t-122 51t-122 -51t-45 -131zM596 686q-98 0 -156 -63t-59 -171q0 -108 58 -170q59 -62 157 -62t158 62t61 170q0 108 -60 171q-61 63 -159 63zM106 414q0 291 261 403q-203 80 -203 309q0 172 123 276
t309 103q186 0 310 -103t124 -276q0 -229 -203 -309q262 -115 263 -403q0 -199 -138 -322t-356 -123t-354 123t-136 322z" />
    <glyph glyph-name="nine" unicode="9" 
d="M580 774q100 0 164 68t63 173t-61 173t-162 68t-164 -68t-62 -174t62 -173q60 -67 160 -67zM586 211q125 0 184 131t51 322q-98 -133 -272 -134q-207 0 -326 138t-119 342q0 205 125 350t336 145q292 0 406 -192t112 -525q0 -819 -503 -819q-182 0 -296 97t-141 253
l238 64q49 -172 205 -172z" />
    <glyph glyph-name="colon" unicode=":" horiz-adv-x="501" 
d="M387 125h-272v276h272v-276zM387 672h-272v276h272v-276z" />
    <glyph glyph-name="semicolon" unicode=";" horiz-adv-x="501" 
d="M256 0h-141v276h278v-276q0 -229 -190 -313l-68 114q121 52 121 199zM387 672h-272v276h272v-276z" />
    <glyph glyph-name="less" unicode="&#x3c;" 
d="M219 588v256l778 469v-289l-544 -305l544 -309v-291z" />
    <glyph glyph-name="equal" unicode="=" 
d="M1065 829h-934v240h934v-240zM1065 416h-934v239h934v-239z" />
    <glyph glyph-name="greater" unicode="&#x3e;" 
d="M997 844v-256l-778 -469v291l545 309l-545 305v289z" />
    <glyph glyph-name="question" unicode="?" 
d="M723 0h-277v276h277v-276zM711 406h-260v81q0 231 186 365q145 104 145 227q0 88 -55 132t-141 44t-146 -60t-63 -171l-262 49q18 199 146 316t330 117t337 -114t135 -300q0 -78 -14 -113q-13 -35 -21 -54t-26 -45t-28 -39q-9 -13 -36 -39t-35 -34t-76 -68
q-67 -60 -91 -102q-24 -43 -25 -125v-67z" />
    <glyph glyph-name="at" unicode="@" horiz-adv-x="1568" 
d="M918 531q0 87 -41 139t-103 53q-62 0 -101 -51q-38 -52 -38 -140t38 -140q39 -52 103 -52t103 52t39 139zM1102 891v-428q0 -121 67 -121q55 0 84 65t29 162q0 238 -133 371t-355 133q-222 -1 -358 -155q-135 -154 -135 -390t134 -394t370 -157q182 0 289 101l149 -152
q-75 -74 -197 -112t-241 -39q-332 0 -533 216q-200 217 -200 541t197 541q198 217 516 217t515 -198t197 -519q0 -173 -89 -295t-237 -122q-76 0 -128 34t-72 86l-23 -32q-72 -88 -206 -88t-219 104t-85 271t85 273t214 105q129 0 197 -88v70h168z" />
    <glyph glyph-name="A" unicode="A" horiz-adv-x="1460" 
d="M729 1122l-217 -587h432zM602 1475h266l572 -1475h-299l-109 293h-610l-109 -293h-293z" />
    <glyph glyph-name="B" unicode="B" horiz-adv-x="1409" 
d="M430 637v-406h322q276 0 276 195q0 211 -303 211h-295zM430 1243v-375h281q121 0 191 50t71 149q0 100 -75 138t-212 38h-256zM766 0h-616v1475h593q236 -1 376 -97t141 -286q0 -111 -58 -197t-174 -125q133 -33 213 -124t80 -220q0 -426 -555 -426z" />
    <glyph glyph-name="C" unicode="C" horiz-adv-x="1513" 
d="M385 737q0 -238 108 -378t298 -140q268 0 350 283l284 -76q-137 -457 -634 -457q-330 0 -517 215q-186 215 -186 554t184 553t512 214q250 0 419 -121t222 -337l-284 -76q-33 141 -124 213t-233 71q-186 0 -292 -140t-107 -378z" />
    <glyph glyph-name="D" unicode="D" horiz-adv-x="1458" 
d="M436 1214v-956h174q236 0 352 114t116 384t-139 370q-69 48 -147 68t-188 20h-168zM651 0h-501v1475h479q365 1 553 -187t188 -544t-180 -550t-539 -194z" />
    <glyph glyph-name="E" unicode="E" horiz-adv-x="1359" 
d="M1231 0h-1081v1475h1060v-261h-774v-331h672v-260h-672v-363h795v-260z" />
    <glyph glyph-name="F" unicode="F" horiz-adv-x="1288" 
d="M436 0h-286v1475h1036v-261h-750v-331h604v-260h-604v-623z" />
    <glyph glyph-name="G" unicode="G" horiz-adv-x="1558" 
d="M385 737q0 -238 117 -378q116 -140 330 -140t319 111v217h-342v229h625v-547q-80 -119 -249 -189t-368 -71q-341 0 -535 215t-194 554t190 553t527 214q520 0 625 -450l-285 -78q-74 279 -342 278q-197 0 -307 -140t-111 -378z" />
    <glyph glyph-name="H" unicode="H" horiz-adv-x="1527" 
d="M436 0h-286v1475h286v-592h656v592h286v-1475h-286v623h-656v-623z" />
    <glyph glyph-name="I" unicode="I" horiz-adv-x="585" 
d="M436 0h-286v1475h286v-1475z" />
    <glyph glyph-name="J" unicode="J" horiz-adv-x="1136" 
d="M506 219q116 0 154 74t38 221v961h289v-994q0 -262 -129 -387t-347 -125q-218 1 -345 117t-123 352l270 39q6 -258 193 -258z" />
    <glyph glyph-name="K" unicode="K" horiz-adv-x="1474" 
d="M436 0h-286v1475h286v-680l594 680h350l-583 -629l610 -846h-356l-441 645l-174 -186v-459z" />
    <glyph glyph-name="L" unicode="L" horiz-adv-x="1288" 
d="M1227 0h-1077v1475h286v-1215h791v-260z" />
    <glyph glyph-name="M" unicode="M" horiz-adv-x="1853" 
d="M436 0h-286v1475h372l406 -1123l409 1123h367v-1475h-289v1001l-366 -1001h-246l-367 1001v-1001z" />
    <glyph glyph-name="N" unicode="N" horiz-adv-x="1546" 
d="M428 0h-278v1475h290l678 -1002v1002h279v-1475h-291l-678 1001v-1001z" />
    <glyph glyph-name="O" unicode="O" horiz-adv-x="1579" 
d="M385 736q0 -237 108 -377t295 -140q188 0 296 141t108 377t-109 377t-293 141t-295 -141q-110 -141 -110 -378zM88 737q0 338 186 553t516 215t515 -215q186 -215 186 -553t-186 -553t-515 -215t-516 215q-186 215 -186 553z" />
    <glyph glyph-name="P" unicode="P" horiz-adv-x="1366" 
d="M436 1221v-461h260q152 0 220 66t69 167q0 227 -293 228h-256zM436 0h-286v1475h546q160 0 285 -43t211 -154t86 -279q0 -227 -148 -359t-417 -132h-277v-508z" />
    <glyph glyph-name="Q" unicode="Q" horiz-adv-x="1579" 
d="M1192 758q0 215 -109 356t-293 141t-295 -141q-110 -141 -110 -378t108 -377t298 -140q76 0 143 29l-146 168l183 164l145 -166q76 129 76 344zM88 737q0 338 186 553t516 215t515 -215q186 -215 186 -550t-178 -547l133 -150l-182 -164l-146 164q-143 -74 -327 -74
q-330 0 -517 215q-186 215 -186 553z" />
    <glyph glyph-name="R" unicode="R" horiz-adv-x="1441" 
d="M436 1214v-432h197q338 0 338 217q0 127 -88 171t-254 44h-193zM150 0v1475h552q254 1 409 -105t155 -336q0 -166 -98 -269t-269 -128q104 -20 188 -102t138 -193l168 -342h-342l-117 248q-74 158 -158 224t-221 65h-119v-537h-286z" />
    <glyph glyph-name="S" unicode="S" horiz-adv-x="1335" 
d="M680 219q121 0 196 49t74 144q0 120 -138 170q-64 24 -204 62t-176 50q-178 54 -242 150t-63 221q0 211 151 326t363 114q528 0 559 -452l-282 -15q-31 217 -269 217q-109 0 -177 -44q-68 -45 -69 -129q0 -84 103 -124q76 -29 377 -112q365 -104 364 -424
q0 -217 -167 -335t-392 -118q-284 0 -438 129t-170 373l278 16q23 -268 322 -268z" />
    <glyph glyph-name="T" unicode="T" horiz-adv-x="1331" 
d="M809 0h-287v1214h-467v261h1221v-261h-467v-1214z" />
    <glyph glyph-name="U" unicode="U" horiz-adv-x="1523" 
d="M1085 637v838h289v-857q0 -301 -158 -475t-453 -174q-296 0 -455 174t-158 475v857h286v-838q0 -408 328 -408q162 1 242 99t79 309z" />
    <glyph glyph-name="V" unicode="V" horiz-adv-x="1474" 
d="M862 0h-262l-573 1475h301l407 -1123l420 1123h293z" />
    <glyph glyph-name="W" unicode="W" horiz-adv-x="2054" 
d="M721 0h-330l-364 1475h299l249 -1153l285 1153h334l293 -1153l242 1153h296l-362 -1475h-332l-305 1143z" />
    <glyph glyph-name="X" unicode="X" horiz-adv-x="1476" 
d="M375 0h-334l541 764l-496 711h354l318 -496l334 496h325l-499 -715l518 -760h-342l-351 545z" />
    <glyph glyph-name="Y" unicode="Y" horiz-adv-x="1425" 
d="M858 0h-291v606l-547 869h322l379 -605l373 605h311l-547 -869v-606z" />
    <glyph glyph-name="Z" unicode="Z" horiz-adv-x="1361" 
d="M1253 0h-1144v260l796 954h-755v261h1083v-261l-809 -954h829v-260z" />
    <glyph glyph-name="bracketleft" unicode="[" horiz-adv-x="718" 
d="M666 -262h-531v1941h531v-245h-250v-1450h250v-246z" />
    <glyph glyph-name="backslash" unicode="\" horiz-adv-x="780" 
d="M780 -205h-274l-506 1884h276z" />
    <glyph glyph-name="bracketright" unicode="]" horiz-adv-x="718" 
d="M584 -262h-531v246h250v1450h-250v245h531v-1941z" />
    <glyph glyph-name="asciicircum" unicode="^" 
d="M469 1475h256l299 -510l-264 -2l-164 307l-168 -307h-258z" />
    <glyph glyph-name="underscore" unicode="_" horiz-adv-x="1368" 
d="M1253 0h-1138v225h1138v-225z" />
    <glyph glyph-name="grave" unicode="`" horiz-adv-x="638" 
d="M395 1475l156 -383h-232l-251 383h327z" />
    <glyph glyph-name="a" unicode="a" horiz-adv-x="1130" 
d="M484 174q72 0 142 44q70 45 103 104v176q-59 -24 -180 -48t-167 -57t-45 -95t38 -93t109 -31zM729 698q0 80 -47 129t-143 50q-162 0 -207 -175l-236 72q37 170 163 246t296 76q444 0 444 -441v-438q0 -152 62 -217h-273q-33 29 -47 117q-123 -147 -319 -148
q-154 0 -256 79q-102 80 -102 234t107 234q108 80 299 101t259 53v28z" />
    <glyph glyph-name="b" unicode="b" horiz-adv-x="1169" 
d="M367 534q1 -164 69 -252t171 -87q103 0 169 87q66 88 66 252t-65 250t-173 86t-173 -86q-64 -86 -64 -250zM119 1475h270v-508q86 129 258 129q205 0 335 -150t130 -414t-127 -414t-323 -149q-196 0 -293 162v-131h-250v1475z" />
    <glyph glyph-name="c" unicode="c" horiz-adv-x="1093" 
d="M328 531q0 -165 61 -251t170 -85q174 0 211 194l266 -41q-41 -190 -168 -284t-309 -95q-221 1 -361 145t-141 418q1 274 141 418t361 146q180 0 308 -94t169 -287l-264 -43q-41 199 -213 198q-107 0 -169 -87t-62 -252z" />
    <glyph glyph-name="d" unicode="d" horiz-adv-x="1169" 
d="M564 870q-108 0 -172 -86t-64 -251t66 -251t168 -87q103 -1 172 87t69 252t-65 250q-66 86 -174 86zM780 1475h271v-1475h-250v131q-96 -162 -293 -162t-324 150q-127 149 -127 413t130 414t335 150q172 0 258 -129v508z" />
    <glyph glyph-name="e" unicode="e" horiz-adv-x="1134" 
d="M574 870q-94 0 -162 -59t-80 -164h469q-6 99 -70 161t-157 62zM573 -31q-223 -1 -369 145t-147 418q1 272 147 418t368 146t364 -140t141 -387v-47l-2 -65h-747q8 -129 80 -196t167 -67q181 1 232 158l252 -53q-111 -330 -486 -330z" />
    <glyph glyph-name="f" unicode="f" horiz-adv-x="735" 
d="M459 0h-264v852h-160v213h160v43q0 174 80 275q81 101 235 101t223 -32l-35 -219q-47 20 -116 20q-123 0 -123 -141v-47h221v-213h-221v-852z" />
    <glyph glyph-name="g" unicode="g" horiz-adv-x="1169" 
d="M564 209q110 0 174 83t65 246q0 164 -69 248t-172 84t-169 -84q-65 -84 -65 -248t63 -247q63 -82 173 -82zM1051 53q0 -217 -122 -350t-386 -133q-182 0 -321 93q-138 93 -138 269l260 -26q18 -123 201 -123q240 0 235 254v61q-86 -115 -258 -114q-207 0 -336 146
t-129 410t127 409q128 147 324 147t293 -162v131h250v-1012z" />
    <glyph glyph-name="h" unicode="h" horiz-adv-x="1179" 
d="M389 0h-270v1475h270v-547q96 168 297 168t288 -117t87 -326v-653h-270v645q0 223 -181 223q-98 0 -159 -76t-62 -212v-580z" />
    <glyph glyph-name="i" unicode="i" horiz-adv-x="507" 
d="M389 0h-270v1065h270v-1065zM389 1217h-270v258h270v-258z" />
    <glyph glyph-name="j" unicode="j" horiz-adv-x="507" 
d="M389 1217h-270v258h270v-258zM119 23v1042h270v-1122q0 -169 -88 -271t-254 -102q-92 0 -166 27l37 223q41 -12 72 -13q80 1 104 57t25 159z" />
    <glyph glyph-name="k" unicode="k" horiz-adv-x="1122" 
d="M119 0v1475h270v-826h51q102 0 164 80q23 31 61 117t40 90q45 80 103 104t173 25h55l-22 -242h-39q-53 1 -75 -21t-48 -83q-61 -137 -160 -162v-8q102 -23 207 -195l182 -354h-301l-151 311q-59 113 -183 113h-57v-424h-270z" />
    <glyph glyph-name="l" unicode="l" horiz-adv-x="507" 
d="M389 0h-270v1423l270 82v-1505z" />
    <glyph glyph-name="m" unicode="m" horiz-adv-x="1746" 
d="M389 0h-270v1065h252v-152q55 99 128 141t179 42q236 0 303 -197q94 197 313 197q156 0 245 -96t89 -271v-729h-270v655q0 213 -146 213q-96 0 -149 -72t-53 -194v-602h-271v662q0 207 -145 206q-104 0 -154 -86t-51 -231v-551z" />
    <glyph glyph-name="n" unicode="n" horiz-adv-x="1179" 
d="M389 0h-270v1065h252v-154q109 185 313 185t290 -117q87 -117 87 -326v-653h-270v645q0 223 -181 223q-98 0 -159 -76t-62 -212v-580z" />
    <glyph glyph-name="o" unicode="o" horiz-adv-x="1153" 
d="M328 531q0 -165 66 -251t182 -85q114 0 182 86q68 87 68 251t-68 251t-183 87t-181 -87t-66 -252zM57 532q-1 274 145 418t374 146q228 0 374 -144t146 -420q0 -274 -146 -418t-374 -144t-374 144t-145 418z" />
    <glyph glyph-name="p" unicode="p" horiz-adv-x="1169" 
d="M607 870q-103 0 -171 -88t-69 -252q1 -164 65 -250t172 -85q108 0 174 86q64 87 64 251t-66 251t-169 87zM389 -410h-270v1475h250v-131q97 162 293 162t323 -150t127 -414t-130 -414t-320 -149q-190 0 -273 129v-508z" />
    <glyph glyph-name="q" unicode="q" horiz-adv-x="1169" 
d="M566 195q108 -1 172 85t65 250q0 164 -69 252t-172 88t-169 -87q-65 -87 -65 -252t64 -251q66 -86 174 -85zM1051 -410h-271v508q-84 -129 -274 -129t-319 150q-130 149 -130 413t127 414q128 150 324 150t293 -162v131h250v-1475z" />
    <glyph glyph-name="r" unicode="r" horiz-adv-x="866" 
d="M389 0h-270v1065h252v-184q53 113 119 163t178 52q113 0 182 -56l-49 -239q-74 41 -148 41q-129 0 -197 -90t-67 -248v-504z" />
    <glyph glyph-name="s" unicode="s" horiz-adv-x="995" 
d="M506 180q190 0 190 121q0 78 -100 105l-256 59q-116 27 -188 101t-72 198q0 168 119 250t301 82t292 -88t117 -220l-233 -38q-23 135 -193 135t-170 -111q0 -68 93 -88l258 -59q274 -66 274 -316q0 -168 -123 -255t-315 -87t-311 92q-118 92 -132 246l234 39
q10 -76 64 -121t151 -45z" />
    <glyph glyph-name="t" unicode="t" horiz-adv-x="747" 
d="M193 852h-152v213h152v238l270 88v-326h196v-213h-196v-479q0 -128 41 -148q20 -10 60 -10t79 12l19 -217q-61 -31 -177 -30q-161 0 -227 82t-65 249v541z" />
    <glyph glyph-name="u" unicode="u" horiz-adv-x="1179" 
d="M791 1065h270v-1065h-252v154q-113 -184 -315 -184t-288 116q-87 117 -87 326v653h270v-645q0 -223 180 -223q98 0 160 75q61 76 62 213v580z" />
    <glyph glyph-name="v" unicode="v" horiz-adv-x="1128" 
d="M684 0h-240l-424 1065h275l268 -737l275 737h270z" />
    <glyph glyph-name="w" unicode="w" horiz-adv-x="1583" 
d="M590 0h-248l-322 1065h273l188 -758l191 758h243l187 -735l201 735h260l-332 -1065h-244l-190 745z" />
    <glyph glyph-name="x" unicode="x" horiz-adv-x="1142" 
d="M344 0h-311l373 545l-349 520h328l193 -328l196 328h305l-338 -514l367 -551h-320l-223 352z" />
    <glyph glyph-name="y" unicode="y" horiz-adv-x="1110" 
d="M285 -430q-62 0 -146 27l-20 239q138 -57 222 5q42 32 73 110l20 59l-414 1055h277l264 -741l262 741h267l-422 -1141q-66 -178 -156 -266t-227 -88z" />
    <glyph glyph-name="z" unicode="z" horiz-adv-x="1028" 
d="M954 0h-880v225l542 615h-503v225h829v-225l-553 -615h565v-225z" />
    <glyph glyph-name="braceleft" unicode="{" horiz-adv-x="696" 
d="M629 1460h-74q-53 0 -68 -26q-16 -26 -24 -43q-8 -15 -8 -59v-396q0 -143 -144 -205q143 -61 144 -205v-364q0 -74 8 -90t19 -36q19 -35 73 -34h74v-207q-45 -20 -140 -20q-305 0 -305 372v295q0 96 -41 140t-102 45v209q61 0 102 44t41 140v295q0 373 305 373
q95 -1 140 -21v-207z" />
    <glyph glyph-name="bar" unicode="|" horiz-adv-x="557" 
d="M422 -205h-287v1884h287v-1884z" />
    <glyph glyph-name="braceright" unicode="}" horiz-adv-x="696" 
d="M68 1460v207q45 20 139 21q305 0 305 -373v-295q0 -96 41 -140t102 -44v-209q-61 0 -102 -44t-41 -141v-295q0 -373 -305 -372q-94 0 -139 20v207h73q53 0 68 26q17 26 25 45q8 18 8 59v394q0 143 143 205q-143 61 -143 205v364q0 76 -8 92q-8 15 -20 34q-20 34 -73 34
h-73z" />
    <glyph glyph-name="asciitilde" unicode="~" horiz-adv-x="1077" 
d="M739 516q-110 0 -216 92q-102 94 -185 92q-140 0 -277 -143v277q117 123 277 122q62 0 120 -28t96 -64q100 -92 185 -92q141 0 277 143v-276q-117 -123 -277 -123z" />
    <glyph glyph-name="exclamdown" unicode="&#xa1;" horiz-adv-x="518" 
d="M123 1065h272v-277h-272v277zM158 629h200l45 -1039h-288z" />
    <glyph glyph-name="cent" unicode="&#xa2;" horiz-adv-x="1093" 
d="M328 528q0 -266 155 -321v649q-155 -62 -155 -328zM483 -236v209q-193 25 -309 167t-117 392q0 250 117 392t309 168v208h154v-208q152 -18 257 -112t142 -265l-264 -43q-29 145 -135 184v-649q102 35 133 182l266 -41q-37 -170 -142 -263t-257 -112v-209h-154z" />
    <glyph glyph-name="currency" unicode="&#xa4;" 
d="M774 736q0 92 -49 144t-123 52t-125 -52t-51 -144q0 -93 49 -143t125 -50t125 50t49 143zM601 305q-116 0 -212 57l-137 -139l-166 166l145 148q-43 85 -43 197t43 204l-145 149l166 166l139 -141q92 57 207 57t211 -57l139 141l166 -166l-147 -149q43 -86 43 -200
t-41 -201l145 -148l-166 -166l-139 139q-92 -57 -208 -57z" />
    <glyph glyph-name="yen" unicode="&#xa5;" horiz-adv-x="1425" 
d="M858 0h-291v221h-307v154h307v98h-307v154h295l-535 848h322l379 -605l373 605h311l-535 -848h295v-154h-307v-98h307v-154h-307v-221z" />
    <glyph glyph-name="brokenbar" unicode="&#xa6;" horiz-adv-x="557" 
d="M135 840v839h287v-839h-287zM422 -205h-287v871h287v-871z" />
    <glyph glyph-name="section" unicode="&#xa7;" horiz-adv-x="1067" 
d="M344 780q0 -42 26 -70t64 -38q215 -61 219 -62q72 35 72 95q0 94 -104 120l-195 54q-34 -6 -58 -32t-24 -67zM543 180q182 0 182 107q0 43 -29 59t-123 43l-260 78q-231 63 -231 274q0 127 125 213q-125 66 -125 229t129 243t323 79q194 0 301 -82q108 -82 119 -225
l-262 -24q-27 121 -174 120q-174 0 -174 -92q0 -27 17 -45t37 -25t61 -20l266 -78q270 -78 270 -303q1 -61 -33 -121t-75 -86q109 -68 109 -232t-131 -244q-131 -79 -337 -79t-325 88t-131 250l264 27q12 -80 57 -117t150 -37z" />
    <glyph glyph-name="copyright" unicode="&#xa9;" horiz-adv-x="1208" 
d="M502 530q0 -57 28 -93t74 -36q76 0 94 78l142 -39q-37 -195 -236 -194q-118 0 -184 83t-66 203t67 202q67 83 183 83q199 0 236 -192l-142 -39q-23 74 -94 73q-47 0 -75 -35q-27 -37 -27 -94zM258 532q0 -166 92 -276t254 -109q162 0 254 110q92 109 92 275t-92 276
t-254 110t-254 -110t-92 -276zM72 532q0 248 149 406q150 158 383 158t383 -158t150 -406t-150 -406t-383 -157q-232 -1 -382 157t-150 406z" />
    <glyph glyph-name="guillemotleft" unicode="&#xab;" horiz-adv-x="927" 
d="M53 539l236 346h227l-192 -346l192 -346h-227zM412 539l235 346h227l-192 -346l192 -346h-227z" />
    <glyph glyph-name="registered" unicode="&#xae;" horiz-adv-x="1208" 
d="M258 532q0 -166 92 -276t254 -109q162 0 254 110q92 109 92 275t-92 276t-254 110t-254 -110t-92 -276zM541 690v-98h47q43 0 59 12t17 39q0 47 -78 47h-45zM393 272v549h197q225 0 225 -159q0 -60 -35 -98t-92 -48q74 -18 115 -115l55 -129h-164l-32 93q-20 57 -44 76
t-63 20h-14v-189h-148zM72 532q0 248 149 406q150 158 383 158t383 -158t150 -406t-150 -406t-383 -157q-232 -1 -382 157t-150 406z" />
    <glyph glyph-name="degree" unicode="&#xb0;" horiz-adv-x="745" 
d="M373 1331q-45 -1 -79 -33t-34 -78t33 -80t79 -34t79 34t33 80t-34 78q-32 32 -77 33zM88 1220q0 118 84 202t202 83q118 0 200 -84q82 -83 83 -201q0 -118 -83 -201q-82 -83 -200 -83t-202 83t-84 201z" />
    <glyph glyph-name="plusminus" unicode="&#xb1;" 
d="M1079 150h-962v239h962v-239zM717 807v-287h-240v287h-360v240h360v346h240v-346h362v-240h-362z" />
    <glyph glyph-name="paragraph" unicode="&#xb6;" horiz-adv-x="1253" 
d="M596 -205h-164v1057q-180 4 -293 116t-113 304t130 300q129 108 344 107h729v-174h-166v-1710h-285v1710h-182v-1710z" />
    <glyph glyph-name="periodcentered" unicode="&#xb7;" horiz-adv-x="501" 
d="M387 397h-272v277h272v-277z" />
    <glyph glyph-name="guillemotright" unicode="&#xbb;" horiz-adv-x="927" 
d="M639 885l235 -346l-235 -346h-227l192 346l-192 346h227zM281 885l235 -346l-235 -346h-228l193 346l-193 346h228z" />
    <glyph glyph-name="questiondown" unicode="&#xbf;" 
d="M453 1065h278v-277h-278v277zM467 659h260v-81q0 -231 -186 -365q-145 -104 -146 -227q-1 -88 55 -132t142 -44t145 60t64 171l262 -49q-19 -199 -147 -316q-128 -116 -330 -116t-336 114q-135 114 -135 299q0 170 125 290l34 34q8 7 76 67t91 103q24 43 26 125v67z" />
    <glyph glyph-name="Agrave" unicode="&#xc0;" horiz-adv-x="1460" 
d="M723 2028l156 -383h-232l-252 383h328zM729 1122l-217 -587h432zM602 1475h266l572 -1475h-299l-109 293h-610l-109 -293h-293z" />
    <glyph glyph-name="Aacute" unicode="&#xc1;" horiz-adv-x="1460" 
d="M532 1645l156 383h328l-252 -383h-232zM512 535h432l-215 587zM868 1475l572 -1475h-299l-109 293h-610l-109 -293h-293l582 1475h266z" />
    <glyph glyph-name="Acircumflex" unicode="&#xc2;" horiz-adv-x="1460" 
d="M614 2030h244l299 -453h-258l-164 268l-168 -268h-252zM729 1122l-217 -587h432zM602 1475h266l572 -1475h-299l-109 293h-610l-109 -293h-293z" />
    <glyph glyph-name="Atilde" unicode="&#xc3;" horiz-adv-x="1460" 
d="M578 1976q72 0 184 -51t161 -51q48 0 107 24t98 78v-258q-38 -41 -106 -61q-68 -21 -132 -21t-168 52q-105 52 -151 51q-137 -1 -209 -103v258q76 82 216 82zM729 1122l-217 -587h432zM602 1475h266l572 -1475h-299l-109 293h-610l-109 -293h-293z" />
    <glyph glyph-name="Adieresis" unicode="&#xc4;" horiz-adv-x="1460" 
d="M1077 1620h-270v264h270v-264zM651 1620h-270v264h270v-264zM729 1122l-217 -587h432zM602 1475h266l572 -1475h-299l-109 293h-610l-109 -293h-293z" />
    <glyph glyph-name="Aring" unicode="&#xc5;" horiz-adv-x="1460" 
d="M734 1946q-46 0 -80 -33t-33 -79t33 -80t79 -34t79 34t32 80t-32 79t-78 33zM449 1834q0 118 83 202q84 84 202 84t201 -84t83 -202t-83 -201t-201 -83t-202 83q-83 83 -83 201zM512 535h432l-215 587zM868 1475l572 -1475h-299l-109 293h-610l-109 -293h-293l582 1475
h266z" />
    <glyph glyph-name="AE" unicode="&#xc6;" horiz-adv-x="2193" 
d="M983 545v514l-313 -514h313zM2044 1475v-261h-774v-331h672v-260h-672v-363h794v-260h-1081v285h-473l-176 -285h-307l936 1475h1081z" />
    <glyph glyph-name="Ccedilla" unicode="&#xc7;" horiz-adv-x="1513" 
d="M848 -291q0 92 -62 92q-49 0 -59 -53l-113 27l68 202q-282 37 -438 244t-156 531t184 539q184 214 512 214q250 0 419 -121t222 -337l-284 -76q-33 141 -124 213t-233 71q-186 0 -292 -140t-106 -378t107 -378q108 -140 298 -140q268 0 350 283l284 -76
q-137 -457 -634 -457h-11l-16 -59h22q82 0 132 -50t51 -150q0 -100 -51 -153q-51 -52 -132 -53q-141 0 -172 138l113 28q10 -53 59 -53q62 0 62 92z" />
    <glyph glyph-name="Egrave" unicode="&#xc8;" horiz-adv-x="1359" 
d="M680 2028l156 -383h-232l-252 383h328zM1231 0h-1081v1475h1060v-261h-774v-331h672v-260h-672v-363h795v-260z" />
    <glyph glyph-name="Eacute" unicode="&#xc9;" horiz-adv-x="1359" 
d="M530 1645l156 383h328l-252 -383h-232zM150 0v1475h1060v-261h-774v-331h672v-260h-672v-363h795v-260h-1081z" />
    <glyph glyph-name="Ecircumflex" unicode="&#xca;" horiz-adv-x="1359" 
d="M569 1989h244l299 -412h-258l-164 227l-168 -227h-252zM1231 0h-1081v1475h1060v-261h-774v-331h672v-260h-672v-363h795v-260z" />
    <glyph glyph-name="Edieresis" unicode="&#xcb;" horiz-adv-x="1345" 
d="M1231 0h-1081v1475h1060v-261h-774v-331h672v-260h-672v-363h795v-260zM1051 1620h-271v264h271v-264zM584 1620h-271v264h271v-264z" />
    <glyph glyph-name="Igrave" unicode="&#xcc;" horiz-adv-x="585" 
d="M307 2028l156 -383h-232l-251 383h327zM436 0h-286v1475h286v-1475z" />
    <glyph glyph-name="Iacute" unicode="&#xcd;" horiz-adv-x="585" 
d="M129 1645l156 383h327l-252 -383h-231zM150 0v1475h286v-1475h-286z" />
    <glyph glyph-name="Icircumflex" unicode="&#xce;" horiz-adv-x="585" 
d="M174 1989h244l299 -412h-258l-164 227l-168 -227h-252zM436 0h-286v1475h286v-1475z" />
    <glyph glyph-name="Idieresis" unicode="&#xcf;" horiz-adv-x="585" 
d="M629 1620h-271v264h271v-264zM227 1620h-270v264h270v-264zM436 0h-286v1475h286v-1475z" />
    <glyph glyph-name="Eth" unicode="&#xd0;" horiz-adv-x="1613" 
d="M592 629v-371h174q236 0 352 114t115 384q0 270 -131 364t-342 94h-168v-360h287v-225h-287zM807 0h-502v629h-278v225h278v621h479q365 1 553 -187q189 -188 189 -544t-180 -550t-539 -194z" />
    <glyph glyph-name="Ntilde" unicode="&#xd1;" horiz-adv-x="1546" 
d="M610 1976q72 0 185 -51t161 -51t106 24q60 24 99 78v-258q-39 -41 -107 -61q-68 -21 -130 -21q-64 0 -169 52t-151 51q-137 -1 -209 -103v258q76 82 215 82zM428 0h-278v1475h290l678 -1002v1002h279v-1475h-291l-678 1001v-1001z" />
    <glyph glyph-name="Ograve" unicode="&#xd2;" horiz-adv-x="1579" 
d="M782 2028l156 -383h-231l-252 383h327zM385 736q0 -237 108 -377t295 -140q188 0 296 141t108 377t-109 377t-293 141t-295 -141q-110 -141 -110 -378zM88 737q0 338 186 553t516 215t515 -215q186 -215 186 -553t-186 -553t-515 -215t-516 215q-186 215 -186 553z" />
    <glyph glyph-name="Oacute" unicode="&#xd3;" horiz-adv-x="1579" 
d="M625 1645l155 383h328l-252 -383h-231zM385 736q0 -237 108 -377t295 -140q188 0 296 141t108 377t-109 377t-293 141t-295 -141q-110 -141 -110 -378zM88 737q0 338 186 553t516 215t515 -215q186 -215 186 -553t-186 -553t-515 -215t-516 215q-186 215 -186 553z" />
    <glyph glyph-name="Ocircumflex" unicode="&#xd4;" horiz-adv-x="1579" 
d="M670 1989h243l320 -412h-258l-184 248l-189 -248h-252zM385 736q0 -237 108 -377t295 -140q188 0 296 141t108 377t-109 377t-293 141t-295 -141q-110 -141 -110 -378zM88 737q0 338 186 553t516 215t515 -215q186 -215 186 -553t-186 -553t-515 -215t-516 215
q-186 215 -186 553z" />
    <glyph glyph-name="Otilde" unicode="&#xd5;" horiz-adv-x="1579" 
d="M623 1976q73 0 185 -51t160 -51t107 24t99 78v-258q-39 -41 -107 -61q-67 -21 -131 -21t-169 52t-151 51q-136 -1 -208 -103v258q76 82 215 82zM385 736q0 -237 108 -377t295 -140q188 0 296 141t108 377t-109 377t-293 141t-295 -141q-110 -141 -110 -378zM88 737
q0 338 186 553t516 215t515 -215q186 -215 186 -553t-186 -553t-515 -215t-516 215q-186 215 -186 553z" />
    <glyph glyph-name="Odieresis" unicode="&#xd6;" horiz-adv-x="1579" 
d="M1169 1620h-270v264h270v-264zM690 1620h-270v264h270v-264zM385 736q0 -237 108 -377t295 -140q188 0 296 141t108 377t-109 377t-293 141t-295 -141q-110 -141 -110 -378zM88 737q0 338 186 553t516 215t515 -215q186 -215 186 -553t-186 -553t-515 -215t-516 215
q-186 215 -186 553z" />
    <glyph glyph-name="multiply" unicode="&#xd7;" horiz-adv-x="1138" 
d="M569 623l-254 -254l-161 159l256 254l-256 256l161 160l254 -256l254 256l162 -160l-258 -256l258 -254l-162 -159z" />
    <glyph glyph-name="Oslash" unicode="&#xd8;" horiz-adv-x="1579" 
d="M385 737q0 -143 43 -250l584 697q-94 72 -221 71q-186 0 -296 -141t-110 -377zM1192 737q0 139 -45 256l-588 -700q96 -74 232 -74q185 0 293 141t108 377zM1491 737q0 -338 -186 -553t-514 -215q-238 0 -406 117l-96 -117l-174 146l110 131q-137 199 -137 491
q0 338 186 553t517 215q231 0 397 -114l94 114l172 -145l-104 -127q141 -205 141 -496z" />
    <glyph glyph-name="Ugrave" unicode="&#xd9;" horiz-adv-x="1523" 
d="M743 2028l156 -383h-231l-252 383h327zM1085 637v838h289v-857q0 -301 -158 -475t-453 -174q-296 0 -455 174t-158 475v857h286v-838q0 -408 328 -408q162 1 242 99t79 309z" />
    <glyph glyph-name="Uacute" unicode="&#xda;" horiz-adv-x="1523" 
d="M614 1645l156 383h328l-252 -383h-232zM1085 1475h289v-857q0 -301 -158 -475t-453 -174q-296 0 -455 174t-158 475v857h286v-838q0 -408 328 -408q162 1 242 99t79 309v838z" />
    <glyph glyph-name="Ucircumflex" unicode="&#xdb;" horiz-adv-x="1523" 
d="M645 1989h244l319 -412h-258l-184 248l-188 -248h-252zM1085 637v838h289v-857q0 -301 -158 -475t-453 -174q-296 0 -455 174t-158 475v857h286v-838q0 -408 328 -408q162 1 242 99t79 309z" />
    <glyph glyph-name="Udieresis" unicode="&#xdc;" horiz-adv-x="1523" 
d="M1135 1620h-271v264h271v-264zM662 1620h-271v264h271v-264zM1085 637v838h289v-857q0 -301 -158 -475t-453 -174q-296 0 -455 174t-158 475v857h286v-838q0 -408 328 -408q162 1 242 99t79 309z" />
    <glyph glyph-name="Yacute" unicode="&#xdd;" horiz-adv-x="1425" 
d="M559 1645l156 383h327l-251 -383h-232zM567 0v606l-547 869h322l379 -605l373 605h311l-547 -869v-606h-291z" />
    <glyph glyph-name="Thorn" unicode="&#xde;" horiz-adv-x="1366" 
d="M436 991v-461h260q152 0 220 66t69 168q0 227 -293 227h-256zM436 0h-286v1495h286v-250h260q160 0 285 -43q125 -44 211 -154t86 -278q0 -227 -148 -359t-417 -132h-277v-279z" />
    <glyph glyph-name="germandbls" unicode="&#xdf;" horiz-adv-x="1376" 
d="M938 180q65 0 102 33t37 88q0 92 -100 119l-133 33q-113 29 -187 107q-73 78 -73 192q0 112 46 181t101 95t102 59q46 33 46 71t-41 70q-40 32 -146 32t-170 -60t-63 -178v-1022h-264v991q0 238 135 369t354 131t334 -89t115 -224t-112 -211q-46 -31 -92 -58
q-112 -66 -112 -138q0 -73 92 -97l135 -33q113 -29 194 -107t81 -235q0 -156 -102 -243q-101 -87 -275 -87t-270 91t-111 247l234 39q10 -82 44 -124t99 -42z" />
    <glyph glyph-name="agrave" unicode="&#xe0;" horiz-adv-x="1130" 
d="M545 1618l155 -383h-231l-252 383h328zM484 174q72 0 142 44q70 45 103 104v176q-59 -24 -180 -48t-167 -57t-45 -95t38 -93t109 -31zM729 698q0 80 -47 129t-143 50q-162 0 -207 -175l-236 72q37 170 163 246t296 76q444 0 444 -441v-438q0 -152 62 -217h-273
q-33 29 -47 117q-123 -147 -319 -148q-154 0 -256 79q-102 80 -102 234t107 234q108 80 299 101t259 53v28z" />
    <glyph glyph-name="aacute" unicode="&#xe1;" horiz-adv-x="1130" 
d="M360 1235l156 383h328l-252 -383h-232zM484 174q72 0 142 44q71 44 103 104v176q-59 -24 -180 -48t-167 -57t-45 -95t38 -93t109 -31zM729 698q0 80 -47 129t-143 50q-162 0 -207 -175l-236 72q37 170 163 246t296 76q444 0 444 -441v-438q0 -152 62 -217h-273
q-33 29 -47 117q-123 -147 -319 -148q-154 0 -256 79q-102 80 -102 234t107 234q108 80 299 101t259 53v28z" />
    <glyph glyph-name="acircumflex" unicode="&#xe2;" horiz-adv-x="1130" 
d="M420 1585h244l258 -356h-258l-123 192l-127 -192h-252zM484 174q72 0 142 44q70 45 103 104v176q-59 -24 -180 -48t-167 -57t-45 -95t38 -93t109 -31zM729 698q0 80 -47 129t-143 50q-162 0 -207 -175l-236 72q37 170 163 246t296 76q444 0 444 -441v-438q0 -152 62 -217
h-273q-33 29 -47 117q-123 -147 -319 -148q-154 0 -256 79q-102 80 -102 234t107 234q108 80 299 101t259 53v28z" />
    <glyph glyph-name="atilde" unicode="&#xe3;" horiz-adv-x="1130" 
d="M406 1548q72 0 166 -51t141 -51q117 0 188 102v-239q-76 -82 -209 -82q-72 0 -160 51t-133 51q-116 0 -188 -102v239q76 82 195 82zM484 174q72 0 142 44q70 45 103 104v176q-59 -24 -180 -48t-167 -57t-45 -95t38 -93t109 -31zM729 698q0 80 -47 129t-143 50
q-162 0 -207 -175l-236 72q37 170 163 246t296 76q444 0 444 -441v-438q0 -152 62 -217h-273q-33 29 -47 117q-123 -147 -319 -148q-154 0 -256 79q-102 80 -102 234t107 234q108 80 299 101t259 53v28z" />
    <glyph glyph-name="adieresis" unicode="&#xe4;" horiz-adv-x="1130" 
d="M893 1212h-272v263h272v-263zM487 1212h-272v263h272v-263zM484 174q72 0 142 44q70 45 103 104v176q-59 -24 -180 -48t-167 -57t-45 -95t38 -93t109 -31zM729 698q0 80 -47 129t-143 50q-162 0 -207 -175l-236 72q37 170 163 246t296 76q444 0 444 -441v-438
q0 -152 62 -217h-273q-33 29 -47 117q-123 -147 -319 -148q-154 0 -256 79q-102 80 -102 234t107 234q108 80 299 101t259 53v28z" />
    <glyph glyph-name="aring" unicode="&#xe5;" horiz-adv-x="1130" 
d="M432 1486q0 -46 34 -80t80 -34t78 34t32 80t-32 79t-78 33t-80 -34q-34 -32 -34 -78zM262 1486q0 118 84 202t202 84t201 -84t83 -202t-84 -201q-82 -83 -200 -83t-202 83t-84 201zM484 174q72 0 142 44q71 44 103 104v176q-59 -24 -180 -48t-167 -57t-45 -95t38 -93
t109 -31zM729 698q0 80 -47 129t-143 50q-162 0 -207 -175l-236 72q37 170 163 246t296 76q444 0 444 -441v-438q0 -152 62 -217h-273q-33 29 -47 117q-123 -147 -319 -148q-154 0 -256 79q-102 80 -102 234t107 234q108 80 299 101t259 53v28z" />
    <glyph glyph-name="ae" unicode="&#xe6;" horiz-adv-x="1806" 
d="M1239 870q-94 0 -162 -58t-80 -165h467q-6 100 -68 162q-63 61 -157 61zM497 174q158 0 273 92q-47 113 -47 232q-67 -28 -181 -50t-160 -55t-45 -95q2 -124 160 -124zM1741 457h-748q4 -129 78 -196t169 -67q182 1 233 158l251 -53q-111 -330 -485 -330q-219 0 -358 133
q-164 -133 -412 -133q-184 0 -295 77q-111 78 -111 234t108 236t295 100t257 54v28q0 80 -45 129t-139 50q-162 0 -207 -175q-102 29 -236 72q37 170 163 246t296 76q225 0 336 -125q137 125 353 125t358 -140t141 -387l-2 -92v-20z" />
    <glyph glyph-name="ccedilla" unicode="&#xe7;" horiz-adv-x="1093" 
d="M592 -240q0 78 -51 78q-41 0 -49 -45l-93 23l54 164q-180 31 -288 172q-108 142 -108 398q1 256 141 400t361 146q180 0 308 -94t169 -287l-264 -43q-41 199 -213 198q-107 0 -169 -87t-62 -252t61 -251t170 -85q174 0 211 194l266 -41q-41 -190 -168 -284t-309 -95h-22
l-15 -41h21q65 0 107 -43t42 -125t-42 -126t-107 -44q-119 0 -144 113l93 25q8 -45 49 -45q51 -1 51 77z" />
    <glyph glyph-name="egrave" unicode="&#xe8;" horiz-adv-x="1134" 
d="M580 1618l155 -383h-231l-252 383h328zM574 870q-94 0 -162 -59t-80 -164h469q-6 99 -70 161t-157 62zM573 -31q-223 -1 -369 145t-147 418q1 272 147 418t368 146t364 -140t141 -387v-47l-2 -65h-747q8 -129 80 -196t167 -67q181 1 232 158l252 -53q-111 -330 -486 -330
z" />
    <glyph glyph-name="eacute" unicode="&#xe9;" horiz-adv-x="1134" 
d="M401 1235l156 383h328l-252 -383h-232zM574 870q-94 0 -162 -59t-80 -164h469q-6 99 -70 161t-157 62zM573 -31q-223 -1 -369 145t-147 418q1 272 147 418t368 146t364 -140t141 -387v-47l-2 -65h-747q8 -129 80 -196t167 -67q181 1 232 158l252 -53q-111 -330 -486 -330
z" />
    <glyph glyph-name="ecircumflex" unicode="&#xea;" horiz-adv-x="1134" 
d="M453 1585h243l258 -356h-258l-123 192l-127 -192h-251zM574 870q-94 0 -162 -59t-80 -164h469q-6 99 -70 161t-157 62zM573 -31q-223 -1 -369 145t-147 418q1 272 147 418t368 146t364 -140t141 -387v-47l-2 -65h-747q8 -129 80 -196t167 -67q181 1 232 158l252 -53
q-111 -330 -486 -330z" />
    <glyph glyph-name="edieresis" unicode="&#xeb;" horiz-adv-x="1134" 
d="M574 870q-94 0 -162 -59t-80 -164h469q-6 99 -70 161t-157 62zM573 -31q-223 -1 -369 145t-147 418q1 272 147 418t368 146t364 -140t141 -387v-47l-2 -65h-747q8 -129 80 -196t167 -67q181 1 232 158l252 -53q-111 -330 -486 -330zM936 1212h-272v263h272v-263z
M489 1212h-272v263h272v-263z" />
    <glyph glyph-name="igrave" unicode="&#xec;" horiz-adv-x="507" 
d="M266 1618l156 -383h-232l-251 383h327zM389 0h-270v1065h270v-1065z" />
    <glyph glyph-name="iacute" unicode="&#xed;" horiz-adv-x="507" 
d="M94 1235l156 383h328l-252 -383h-232zM119 0v1065h270v-1065h-270z" />
    <glyph glyph-name="icircumflex" unicode="&#xee;" horiz-adv-x="507" 
d="M135 1585h244l258 -356h-258l-123 192l-127 -192h-252zM389 0h-270v1065h270v-1065z" />
    <glyph glyph-name="idieresis" unicode="&#xef;" horiz-adv-x="507" 
d="M569 1217h-256v258h256v-258zM389 0h-270v1065h270v-1065zM195 1217h-256v258h256v-258z" />
    <glyph glyph-name="eth" unicode="&#xf0;" horiz-adv-x="1153" 
d="M580 801q-102 1 -175 -73t-75 -230t72 -230t174 -74q99 0 175 73q75 73 77 230t-72 231t-176 73zM520 1026q92 0 176 -41t123 -90q-39 188 -164 297l-71 -125l-176 102l67 115q-82 25 -180 25l16 245q158 0 293 -45l68 117l176 -102l-64 -111q170 -125 246 -349t64 -504
t-158 -436t-347 -155q-200 0 -358 123q-78 61 -126 169t-46 244t43 240q72 183 250 252q76 29 168 29z" />
    <glyph glyph-name="ntilde" unicode="&#xf1;" horiz-adv-x="1179" 
d="M457 1548q72 0 167 -51t140 -51q117 0 188 102v-239q-76 -82 -209 -82q-71 0 -159 51t-133 51q-117 0 -189 -102v239q76 82 195 82zM389 0h-270v1065h252v-154q109 185 313 185t290 -117q87 -117 87 -326v-653h-270v645q0 223 -181 223q-98 0 -159 -76t-62 -212v-580z
" />
    <glyph glyph-name="ograve" unicode="&#xf2;" horiz-adv-x="1153" 
d="M559 1618l156 -383h-232l-252 383h328zM328 531q0 -165 66 -251t182 -85q114 0 182 86q68 87 68 251t-68 251t-183 87t-181 -87t-66 -252zM57 532q-1 274 145 418t374 146q228 0 374 -144t146 -420q0 -274 -146 -418t-374 -144t-374 144t-145 418z" />
    <glyph glyph-name="oacute" unicode="&#xf3;" horiz-adv-x="1153" 
d="M422 1235l156 383h327l-252 -383h-231zM328 531q0 -165 66 -251t182 -85q114 0 182 86q68 87 68 251t-68 251t-183 87t-181 -87t-66 -252zM57 532q-1 274 145 418t374 146q228 0 374 -144t146 -420q0 -274 -146 -418t-374 -144t-374 144t-145 418z" />
    <glyph glyph-name="ocircumflex" unicode="&#xf4;" horiz-adv-x="1153" 
d="M455 1585h243l258 -356h-258l-123 192l-126 -192h-252zM328 531q0 -165 66 -251t182 -85q114 0 182 86q68 87 68 251t-68 251t-183 87t-181 -87t-66 -252zM57 532q-1 274 145 418t374 146q228 0 374 -144t146 -420q0 -274 -146 -418t-374 -144t-374 144t-145 418z" />
    <glyph glyph-name="otilde" unicode="&#xf5;" horiz-adv-x="1153" 
d="M438 1548q72 0 167 -51t140 -51q117 0 189 102v-239q-76 -82 -209 -82q-72 0 -160 51t-133 51q-116 0 -188 -102v239q76 82 194 82zM328 531q0 -165 66 -251t182 -85q114 0 182 86q68 87 68 251t-68 251t-183 87t-181 -87t-66 -252zM57 532q-1 274 145 418t374 146
q228 0 374 -144t146 -420q0 -274 -146 -418t-374 -144t-374 144t-145 418z" />
    <glyph glyph-name="odieresis" unicode="&#xf6;" horiz-adv-x="1153" 
d="M918 1212h-273v263h273v-263zM506 1212h-273v263h273v-263zM328 531q0 -165 66 -251t182 -85q114 0 182 86q68 87 68 251t-68 251t-183 87t-181 -87t-66 -252zM57 532q-1 274 145 418t374 146q228 0 374 -144t146 -420q0 -274 -146 -418t-374 -144t-374 144t-145 418z
" />
    <glyph glyph-name="divide" unicode="&#xf7;" horiz-adv-x="1138" 
d="M705 236h-273v276h273v-276zM705 971h-273v276h273v-276zM1024 629h-909v225h909v-225z" />
    <glyph glyph-name="oslash" unicode="&#xf8;" horiz-adv-x="1153" 
d="M328 532q0 -72 12 -120l350 428q-49 31 -115 30q-115 0 -181 -87t-66 -251zM825 532q0 68 -16 127l-352 -432q51 -33 118 -32q115 -1 183 85t67 252zM1057 965l-60 -74q98 -141 99 -359q0 -274 -146 -418t-375 -145q-156 0 -272 68l-55 -68l-158 131l62 76
q-94 139 -95 356q-1 274 145 418t373 146q152 0 271 -66l53 66z" />
    <glyph glyph-name="ugrave" unicode="&#xf9;" horiz-adv-x="1179" 
d="M580 1618l155 -383h-231l-252 383h328zM791 1065h270v-1065h-252v154q-113 -184 -315 -184t-288 116q-87 117 -87 326v653h270v-645q0 -223 180 -223q98 0 160 75q61 76 62 213v580z" />
    <glyph glyph-name="uacute" unicode="&#xfa;" horiz-adv-x="1179" 
d="M422 1235l156 383h327l-252 -383h-231zM1061 1065v-1065h-252v154q-113 -184 -315 -184t-288 116q-87 117 -87 326v653h270v-645q0 -223 180 -223q98 0 160 75q61 76 62 213v580h270z" />
    <glyph glyph-name="ucircumflex" unicode="&#xfb;" horiz-adv-x="1179" 
d="M467 1585h244l258 -356h-258l-123 192l-127 -192h-252zM791 1065h270v-1065h-252v154q-113 -184 -315 -184t-288 116q-87 117 -87 326v653h270v-645q0 -223 180 -223q98 0 160 75q61 76 62 213v580z" />
    <glyph glyph-name="udieresis" unicode="&#xfc;" horiz-adv-x="1179" 
d="M926 1212h-273v263h273v-263zM512 1212h-272v263h272v-263zM791 1065h270v-1065h-252v154q-113 -184 -315 -184t-288 116q-87 117 -87 326v653h270v-645q0 -223 180 -223q98 0 160 75q61 76 62 213v580z" />
    <glyph glyph-name="yacute" unicode="&#xfd;" horiz-adv-x="1110" 
d="M410 1235l155 383h328l-252 -383h-231zM285 -430q-62 0 -146 27l-20 239q138 -57 222 5q42 32 73 110l20 59l-414 1055h277l264 -741l262 741h267l-422 -1141q-66 -178 -156 -266t-227 -88z" />
    <glyph glyph-name="thorn" unicode="&#xfe;" horiz-adv-x="1169" 
d="M607 870q-103 0 -171 -88t-69 -252q1 -164 65 -250t172 -85q108 0 174 86q64 87 64 251t-66 251t-169 87zM389 -410h-270v1762h264v-404q96 147 270 148q205 0 332 -150t127 -414t-130 -414t-320 -149q-190 0 -273 129v-508z" />
    <glyph glyph-name="ydieresis" unicode="&#xff;" horiz-adv-x="1110" 
d="M909 1212h-272v263h272v-263zM498 1212h-273v263h273v-263zM285 -430q-62 0 -146 27l-20 239q138 -57 222 5q42 32 73 110l20 59l-414 1055h277l264 -741l262 741h267l-422 -1141q-66 -178 -156 -266t-227 -88z" />
    <glyph glyph-name="Abreve" unicode="&#x102;" horiz-adv-x="1460" 
d="M1116 1884q0 -152 -94 -247t-280 -95t-276 95q-91 95 -91 247h215q4 -158 151 -158q74 0 116 41t44 117h215zM729 1122l-217 -587h432zM602 1475h266l572 -1475h-299l-109 293h-610l-109 -293h-293z" />
    <glyph glyph-name="abreve" unicode="&#x103;" horiz-adv-x="1130" 
d="M895 1475q0 -141 -90 -221t-244 -80q-155 0 -241 80t-87 221h187q8 -63 47 -95t94 -32t97 32t49 95h188zM484 174q72 0 142 44q70 45 103 104v176q-59 -24 -180 -48t-167 -57t-45 -95t38 -93t109 -31zM729 698q0 80 -47 129t-143 50q-162 0 -207 -175l-236 72
q37 170 163 246t296 76q444 0 444 -441v-438q0 -152 62 -217h-273q-33 29 -47 117q-123 -147 -319 -148q-154 0 -256 79q-102 80 -102 234t107 234q108 80 299 101t259 53v28z" />
    <glyph glyph-name="Aogonek" unicode="&#x104;" horiz-adv-x="1460" 
d="M729 1122l-217 -587h432zM1376 0q-82 0 -131 -48t-49 -110t33 -94q33 -33 84 -33q82 0 131 92l125 -116q-31 -61 -100 -109t-180 -49q-111 0 -194 72q-83 73 -83 207t118 211l-98 270h-610l-109 -293h-293l582 1475h266l572 -1475h-64z" />
    <glyph glyph-name="aogonek" unicode="&#x105;" horiz-adv-x="1130" 
d="M484 174q72 0 142 44q70 45 103 104v176q-59 -24 -180 -48t-167 -57t-45 -95t38 -93t109 -31zM729 698q0 80 -47 129t-143 50q-162 0 -207 -175l-236 72q37 170 163 246t296 76q444 0 444 -441v-438q0 -152 62 -217h-64q-78 0 -128 -43t-50 -109t33 -100q33 -33 84 -33
q82 0 131 92l125 -116q-31 -61 -99 -110q-69 -48 -181 -48t-194 72q-83 72 -83 198q0 166 158 236q-36 25 -52 78q-123 -147 -319 -148q-154 0 -256 79q-102 80 -102 234t107 234q108 80 299 101t259 53v28z" />
    <glyph glyph-name="Cacute" unicode="&#x106;" horiz-adv-x="1513" 
d="M606 1645l156 383h328l-252 -383h-232zM385 737q0 -238 108 -378t298 -140q268 0 350 283l284 -76q-137 -457 -634 -457q-330 0 -517 215q-186 215 -186 554t184 553t512 214q250 0 419 -121t222 -337l-284 -76q-33 141 -124 213t-233 71q-186 0 -292 -140t-107 -378z
" />
    <glyph glyph-name="cacute" unicode="&#x107;" horiz-adv-x="1093" 
d="M385 1235l156 383h327l-252 -383h-231zM328 531q0 -165 61 -251t170 -85q174 0 211 194l266 -41q-41 -190 -168 -284t-309 -95q-221 1 -361 145t-141 418q1 274 141 418t361 146q180 0 308 -94t169 -287l-264 -43q-41 199 -213 198q-107 0 -169 -87t-62 -252z" />
    <glyph glyph-name="Ccaron" unicode="&#x10c;" horiz-adv-x="1513" 
d="M905 1618h-243l-300 383h259l163 -219l168 219h252zM385 737q0 -238 108 -378t298 -140q268 0 350 283l284 -76q-137 -457 -634 -457q-330 0 -517 215q-186 215 -186 554t184 553t512 214q250 0 419 -121t222 -337l-284 -76q-33 141 -124 213t-233 71q-186 0 -292 -140
t-107 -378z" />
    <glyph glyph-name="ccaron" unicode="&#x10d;" horiz-adv-x="1093" 
d="M676 1229h-244l-258 356h258l123 -192l127 192h252zM328 531q0 -165 61 -251t170 -85q174 0 211 194l266 -41q-41 -190 -168 -284t-309 -95q-221 1 -361 145t-141 418q1 274 141 418t361 146q180 0 308 -94t169 -287l-264 -43q-41 199 -213 198q-107 0 -169 -87t-62 -252
z" />
    <glyph glyph-name="Dcaron" unicode="&#x10e;" horiz-adv-x="1458" 
d="M770 1618h-244l-299 383h258l164 -219l168 219h252zM436 1214v-956h174q236 0 352 114t116 384t-139 370q-69 48 -147 68t-188 20h-168zM651 0h-501v1475h479q365 1 553 -187t188 -544t-180 -550t-539 -194z" />
    <glyph glyph-name="dcaron" unicode="&#x10f;" horiz-adv-x="1462" 
d="M1311 1198h-142v277h279v-277q0 -229 -191 -313l-67 114q121 52 121 199zM564 870q-108 0 -172 -86t-64 -251t66 -251t168 -87q103 -1 172 87t69 252t-65 250q-66 86 -174 86zM780 1475h271v-1475h-250v131q-96 -162 -293 -162t-324 150q-127 149 -127 413t130 414
t335 150q172 0 258 -129v508z" />
    <glyph glyph-name="Dcroat" unicode="&#x110;" horiz-adv-x="1613" 
d="M592 629v-371h174q236 0 352 114t115 384q0 270 -131 364t-342 94h-168v-360h287v-225h-287zM807 0h-502v629h-278v225h278v621h479q365 1 553 -187q189 -188 189 -544t-180 -550t-539 -194z" />
    <glyph glyph-name="dcroat" unicode="&#x111;" horiz-adv-x="1169" 
d="M564 870q-108 0 -172 -86t-64 -251t66 -251t168 -87q103 -1 172 87t69 252t-65 250q-66 86 -174 86zM780 1159h-125v178h125v138h271v-138h118v-178h-118v-1159h-250v131q-96 -162 -293 -162t-324 150q-127 149 -127 413t130 414t335 150q172 0 258 -129v192z" />
    <glyph glyph-name="Eogonek" unicode="&#x118;" horiz-adv-x="1359" 
d="M150 0v1475h1060v-261h-774v-331h672v-260h-672v-363h795v-260h-51q-74 0 -118 -48t-44 -110t33 -94q33 -33 84 -33q82 0 131 92l125 -116q-31 -61 -102 -109t-183 -49q-112 0 -192 72q-81 72 -80 198q0 61 28 115t76 82h-788z" />
    <glyph glyph-name="eogonek" unicode="&#x119;" horiz-adv-x="1134" 
d="M574 870q-94 0 -162 -59t-80 -164h469q-6 99 -70 161t-157 62zM688 -162q0 -57 33 -90t84 -33q82 0 131 92l125 -116q-31 -61 -100 -110q-69 -48 -181 -48t-194 69t-82 193q0 51 24 103t58 73q-78 0 -123 13q-182 31 -294 172q-112 140 -112 394q1 254 147 400t368 146
t364 -140t141 -387v-47l-2 -65h-747q8 -129 80 -196t167 -67q181 1 232 158q43 -10 127 -27t125 -26q-37 -103 -96 -167t-167 -128t-108 -166z" />
    <glyph glyph-name="Ecaron" unicode="&#x11a;" horiz-adv-x="1359" 
d="M803 1618h-244l-299 383h258l164 -219l168 219h252zM1231 0h-1081v1475h1060v-261h-774v-331h672v-260h-672v-363h795v-260z" />
    <glyph glyph-name="ecaron" unicode="&#x11b;" horiz-adv-x="1134" 
d="M692 1229h-243l-259 356h259l122 -192l127 192h252zM574 870q-94 0 -162 -59t-80 -164h469q-6 99 -70 161t-157 62zM573 -31q-223 -1 -369 145t-147 418q1 272 147 418t368 146t364 -140t141 -387v-47l-2 -65h-747q8 -129 80 -196t167 -67q181 1 232 158l252 -53
q-111 -330 -486 -330z" />
    <glyph glyph-name="Lacute" unicode="&#x139;" horiz-adv-x="1288" 
d="M219 1645l156 383h327l-251 -383h-232zM150 0v1475h286v-1215h791v-260h-1077z" />
    <glyph glyph-name="lacute" unicode="&#x13a;" horiz-adv-x="507" 
d="M113 1645l155 383h328l-252 -383h-231zM119 0v1423l270 82v-1505h-270z" />
    <glyph glyph-name="Lcaron" unicode="&#x13d;" horiz-adv-x="1288" 
d="M426 1618h-244l-299 383h258l164 -219l168 219h252zM1227 0h-1077v1475h286v-1215h791v-260z" />
    <glyph glyph-name="lcaron" unicode="&#x13e;" horiz-adv-x="800" 
d="M649 1198h-141v277h278v-277q0 -229 -190 -313l-68 114q121 52 121 199zM389 0h-270v1423l270 82v-1505z" />
    <glyph glyph-name="Lslash" unicode="&#x141;" horiz-adv-x="1439" 
d="M1378 0h-1077v555l-162 -96l-112 196l274 164v656h287v-482l172 105l112 -197l-284 -172v-469h790v-260z" />
    <glyph glyph-name="lslash" unicode="&#x142;" horiz-adv-x="899" 
d="M582 0h-271v563l-172 -104l-112 196l284 172v596l271 82v-516l178 109l112 -197l-290 -176v-725z" />
    <glyph glyph-name="Nacute" unicode="&#x143;" horiz-adv-x="1546" 
d="M641 1645l156 383h327l-252 -383h-231zM150 0v1475h290l678 -1002v1002h279v-1475h-291l-678 1001v-1001h-278z" />
    <glyph glyph-name="nacute" unicode="&#x144;" horiz-adv-x="1179" 
d="M375 1235l155 383h328l-252 -383h-231zM119 0v1065h252v-154q109 185 313 185t290 -117q87 -117 87 -326v-653h-270v645q0 223 -181 223q-98 0 -159 -76t-62 -212v-580h-270z" />
    <glyph glyph-name="Ncaron" unicode="&#x147;" horiz-adv-x="1546" 
d="M893 1618h-244l-299 383h258l164 -219l168 219h252zM428 0h-278v1475h290l678 -1002v1002h279v-1475h-291l-678 1001v-1001z" />
    <glyph glyph-name="ncaron" unicode="&#x148;" horiz-adv-x="1179" 
d="M684 1229h-244l-258 356h258l123 -192l127 192h252zM389 0h-270v1065h252v-154q109 185 313 185t290 -117q87 -117 87 -326v-653h-270v645q0 223 -181 223q-98 0 -159 -76t-62 -212v-580z" />
    <glyph glyph-name="Ohungarumlaut" unicode="&#x150;" horiz-adv-x="1579" 
d="M864 1645l156 383h328l-252 -383h-232zM399 1645l156 383h328l-252 -383h-232zM385 736q0 -237 108 -377t295 -140q188 0 296 141t108 377t-109 377t-293 141t-295 -141q-110 -141 -110 -378zM88 737q0 338 186 553t516 215t515 -215q186 -215 186 -553t-186 -553
t-515 -215t-516 215q-186 215 -186 553z" />
    <glyph glyph-name="ohungarumlaut" unicode="&#x151;" horiz-adv-x="1153" 
d="M623 1235l155 383h328l-252 -383h-231zM190 1235l156 383h328l-252 -383h-232zM328 531q0 -165 66 -251t182 -85q114 0 182 86q68 87 68 251t-68 251t-183 87t-181 -87t-66 -252zM57 532q-1 274 145 418t374 146q228 0 374 -144t146 -420q0 -274 -146 -418t-374 -144
t-374 144t-145 418z" />
    <glyph glyph-name="OE" unicode="&#x152;" horiz-adv-x="2082" 
d="M934 258v956h-80q-110 0 -188 -19q-191 -46 -250 -214q-35 -96 -35 -238q0 -257 116 -371t351 -114h86zM1954 0h-1147q-358 0 -539 194q-180 194 -180 550t188 542q188 188 553 189h1104v-261h-712v-331h610v-260h-610v-363h733v-260z" />
    <glyph glyph-name="oe" unicode="&#x153;" horiz-adv-x="1902" 
d="M1343 870q-93 0 -161 -58t-80 -165h467q-6 99 -69 161t-157 62zM328 531q0 -165 66 -251t182 -85q114 0 182 86q68 87 68 251t-68 251t-183 87t-181 -87t-66 -252zM57 532q-1 274 145 418t373 146q260 0 386 -203q127 203 382 203q219 0 361 -140t141 -387
q0 -106 -2 -112h-745q8 -129 80 -196t167 -67q181 1 232 158l252 -53q-111 -330 -486 -330q-256 0 -382 203q-125 -203 -386 -203q-227 1 -373 145t-145 418z" />
    <glyph glyph-name="Racute" unicode="&#x154;" horiz-adv-x="1441" 
d="M471 1645l156 383h327l-252 -383h-231zM436 782h197q338 0 338 217q0 127 -88 171t-254 44h-193v-432zM150 1475h552q254 1 409 -105t155 -336q0 -166 -98 -269t-269 -128q104 -20 188 -102t138 -193l168 -342h-342l-117 248q-74 158 -158 224t-221 65h-119v-537h-286
v1475z" />
    <glyph glyph-name="racute" unicode="&#x155;" horiz-adv-x="866" 
d="M272 1235l156 383h328l-252 -383h-232zM119 0v1065h252v-184q53 113 119 163t178 52q113 0 182 -56l-49 -239q-74 41 -148 41q-129 0 -197 -90t-67 -248v-504h-270z" />
    <glyph glyph-name="Rcaron" unicode="&#x158;" horiz-adv-x="1441" 
d="M803 1618h-244l-299 383h258l164 -219l168 219h252zM436 1214v-432h197q338 0 338 217q0 127 -88 171t-254 44h-193zM150 0v1475h552q254 1 409 -105t155 -336q0 -166 -98 -269t-269 -128q104 -20 188 -102t138 -193l168 -342h-342l-117 248q-74 158 -158 224t-221 65
h-119v-537h-286z" />
    <glyph glyph-name="rcaron" unicode="&#x159;" horiz-adv-x="866" 
d="M575 1229h-243l-258 356h258l123 -192l127 192h252zM389 0h-270v1065h252v-184q53 113 119 163t178 52q113 0 182 -56l-49 -239q-74 41 -148 41q-129 0 -197 -90t-67 -248v-504z" />
    <glyph glyph-name="Sacute" unicode="&#x15a;" horiz-adv-x="1335" 
d="M475 1645l156 383h327l-251 -383h-232zM680 219q121 0 196 49t74 144q0 120 -138 170q-64 24 -204 62t-176 50q-178 54 -242 150t-63 221q0 211 151 326t363 114q528 0 559 -452l-282 -15q-31 217 -269 217q-109 0 -177 -44q-68 -45 -69 -129q0 -84 103 -124
q76 -29 377 -112q365 -104 364 -424q0 -217 -167 -335t-392 -118q-284 0 -438 129t-170 373l278 16q23 -268 322 -268z" />
    <glyph glyph-name="sacute" unicode="&#x15b;" horiz-adv-x="995" 
d="M305 1235l156 383h327l-251 -383h-232zM506 180q190 0 190 121q0 78 -100 105l-256 59q-116 27 -188 101t-72 198q0 168 119 250t301 82t292 -88t117 -220l-233 -38q-23 135 -193 135t-170 -111q0 -68 93 -88l258 -59q274 -66 274 -316q0 -168 -123 -255t-315 -87
t-311 92q-118 92 -132 246l234 39q10 -76 64 -121t151 -45z" />
    <glyph glyph-name="Scaron" unicode="&#x160;" horiz-adv-x="1335" 
d="M774 1618h-244l-299 383h258l164 -219l168 219h252zM680 219q121 0 196 49t74 144q0 120 -138 170q-64 24 -204 62t-176 50q-178 54 -242 150t-63 221q0 211 151 326t363 114q528 0 559 -452l-282 -15q-31 217 -269 217q-109 0 -177 -44q-68 -45 -69 -129q0 -84 103 -124
q76 -29 377 -112q365 -104 364 -424q0 -217 -167 -335t-392 -118q-284 0 -438 129t-170 373l278 16q23 -268 322 -268z" />
    <glyph glyph-name="scaron" unicode="&#x161;" horiz-adv-x="995" 
d="M608 1229h-243l-259 356h259l122 -192l127 192h252zM506 180q190 0 190 121q0 78 -100 105l-256 59q-116 27 -188 101t-72 198q0 168 119 250t301 82t292 -88t117 -220l-233 -38q-23 135 -193 135t-170 -111q0 -68 93 -88l258 -59q274 -66 274 -316q0 -168 -123 -255
t-315 -87t-311 92q-118 92 -132 246l234 39q10 -76 64 -121t151 -45z" />
    <glyph glyph-name="Tcommaaccent" unicode="&#x162;" horiz-adv-x="1331" 
d="M672 -438h-142v276h277v-276q0 -231 -189 -314l-67 115q121 52 121 199zM809 0h-287v1214h-467v261h1221v-261h-467v-1214z" />
    <glyph glyph-name="tcommaaccent" unicode="&#x163;" horiz-adv-x="747" 
d="M406 -438h-142v276h277v-276q0 -231 -189 -314l-67 115q121 52 121 199zM193 852h-152v213h152v238l270 88v-326h196v-213h-196v-479q0 -128 41 -148q20 -10 60 -10t79 12l19 -217q-61 -31 -177 -30q-161 0 -227 82t-65 249v541z" />
    <glyph glyph-name="Tcaron" unicode="&#x164;" horiz-adv-x="1331" 
d="M788 1618h-243l-299 383h258l164 -219l168 219h251zM809 0h-287v1214h-467v261h1221v-261h-467v-1214z" />
    <glyph glyph-name="tcaron" unicode="&#x165;" horiz-adv-x="1005" 
d="M854 1198h-141v277h278v-277q0 -229 -190 -313l-68 114q121 52 121 199zM193 852h-152v213h152v238l270 88v-326h196v-213h-196v-479q0 -128 41 -148q20 -10 60 -10t79 12l19 -217q-61 -31 -177 -30q-161 0 -227 82t-65 249v541z" />
    <glyph glyph-name="Uring" unicode="&#x16e;" horiz-adv-x="1523" 
d="M649 1834q0 -46 33 -80t79 -34t79 34q32 34 32 80t-32 79q-33 33 -78 33t-79 -33t-34 -79zM477 1834q0 118 84 202t202 84t201 -84t83 -202t-83 -201t-201 -83t-202 83t-84 201zM1085 1475h289v-857q0 -301 -158 -475t-453 -174q-296 0 -455 174t-158 475v857h286v-838
q0 -408 328 -408q162 1 242 99t79 309v838z" />
    <glyph glyph-name="uring" unicode="&#x16f;" horiz-adv-x="1179" 
d="M475 1486q0 -46 33 -80t80 -34t79 34q31 34 31 80t-31 79q-32 33 -78 33t-80 -34q-34 -32 -34 -78zM303 1486q0 118 84 202t202 84t201 -84q82 -84 82 -202t-82 -201t-201 -83q-118 0 -202 83t-84 201zM1061 1065v-1065h-252v154q-113 -184 -315 -184t-288 116
q-87 117 -87 326v653h270v-645q0 -223 180 -223q98 0 160 75q61 76 62 213v580h270z" />
    <glyph glyph-name="Uhungarumlaut" unicode="&#x170;" horiz-adv-x="1523" 
d="M840 1645l155 383h328l-252 -383h-231zM360 1645l156 383h328l-252 -383h-232zM1085 1475h289v-857q0 -301 -158 -475t-453 -174q-296 0 -455 174t-158 475v857h286v-838q0 -408 328 -408q162 1 242 99t79 309v838z" />
    <glyph glyph-name="uhungarumlaut" unicode="&#x171;" horiz-adv-x="1179" 
d="M629 1235l155 383h328l-252 -383h-231zM188 1235l156 383h328l-252 -383h-232zM1061 1065v-1065h-252v154q-113 -184 -315 -184t-288 116q-87 117 -87 326v653h270v-645q0 -223 180 -223q98 0 160 75q61 76 62 213v580h270z" />
    <glyph glyph-name="Ydieresis" unicode="&#x178;" horiz-adv-x="1425" 
d="M1087 1620h-270v264h270v-264zM614 1620h-270v264h270v-264zM858 0h-291v606l-547 869h322l379 -605l373 605h311l-547 -869v-606z" />
    <glyph glyph-name="Zacute" unicode="&#x179;" horiz-adv-x="1361" 
d="M516 1645l156 383h327l-251 -383h-232zM109 0v260l796 954h-755v261h1083v-261l-809 -954h829v-260h-1144z" />
    <glyph glyph-name="zacute" unicode="&#x17a;" horiz-adv-x="1028" 
d="M354 1235l156 383h328l-252 -383h-232zM74 0v225l542 615h-503v225h829v-225l-553 -615h565v-225h-880z" />
    <glyph glyph-name="Zdotaccent" unicode="&#x17b;" horiz-adv-x="1361" 
d="M811 1638h-272v277h272v-277zM1253 0h-1144v260l796 954h-755v261h1083v-261l-809 -954h829v-260z" />
    <glyph glyph-name="zdotaccent" unicode="&#x17c;" horiz-adv-x="1028" 
d="M664 1217h-271v258h271v-258zM954 0h-880v225l542 615h-503v225h829v-225l-553 -615h565v-225z" />
    <glyph glyph-name="Zcaron" unicode="&#x17d;" horiz-adv-x="1361" 
d="M803 1618h-244l-299 383h258l164 -219l168 219h252zM1253 0h-1144v260l796 954h-755v261h1083v-261l-809 -954h829v-260z" />
    <glyph glyph-name="zcaron" unicode="&#x17e;" horiz-adv-x="1028" 
d="M641 1229h-244l-258 356h258l123 -192l127 192h252zM954 0h-880v225l542 615h-503v225h829v-225l-553 -615h565v-225z" />
    <glyph glyph-name="Scommaaccent" unicode="&#x218;" horiz-adv-x="1335" 
d="M696 -438h-141v276h276v-276q0 -231 -188 -314l-68 115q121 52 121 199zM680 219q121 0 196 49t74 144q0 120 -138 170q-64 24 -204 62t-176 50q-178 54 -242 150t-63 221q0 211 151 326t363 114q528 0 559 -452l-282 -15q-31 217 -269 217q-109 0 -177 -44
q-68 -45 -69 -129q0 -84 103 -124q76 -29 377 -112q365 -104 364 -424q0 -217 -167 -335t-392 -118q-284 0 -438 129t-170 373l278 16q23 -268 322 -268z" />
    <glyph glyph-name="scommaaccent" unicode="&#x219;" horiz-adv-x="995" 
d="M520 -438h-141v276h278v-276q0 -229 -190 -314l-68 115q121 52 121 199zM506 180q190 0 190 121q0 78 -100 105l-256 59q-116 27 -188 101t-72 198q0 168 119 250t301 82t292 -88t117 -220l-233 -38q-23 135 -193 135t-170 -111q0 -68 93 -88l258 -59q274 -66 274 -316
q0 -168 -123 -255t-315 -87t-311 92q-118 92 -132 246l234 39q10 -76 64 -121t151 -45z" />
    <glyph glyph-name="afii10023" unicode="&#x401;" horiz-adv-x="1345" 
d="M1231 0h-1081v1475h1060v-261h-774v-331h672v-260h-672v-363h795v-260zM1051 1620h-271v264h271v-264zM584 1620h-271v264h271v-264z" />
    <glyph glyph-name="afii10051" unicode="&#x402;" horiz-adv-x="1599" 
d="M1081 207q80 0 105 56t24 159v80q0 223 -180 223q-94 0 -156 -72t-65 -202v-451h-287v1214h-467v261h1221v-261h-467v-430q100 168 299 168t286 -116t87 -326v-168q0 -170 -87 -271t-253 -102q-94 0 -168 27l37 223q41 -12 71 -12z" />
    <glyph glyph-name="afii10052" unicode="&#x403;" horiz-adv-x="1175" 
d="M457 1645l155 383h328l-252 -383h-231zM150 1475h970v-261h-684v-1214h-286v1475z" />
    <glyph glyph-name="afii10053" unicode="&#x404;" horiz-adv-x="1513" 
d="M936 868v-231h-543q21 -195 125 -307t273 -111q268 0 350 283l284 -76q-137 -457 -634 -457q-330 0 -517 215q-186 215 -186 554t184 553t512 214q250 0 419 -121t222 -337l-284 -76q-67 285 -365 285q-150 0 -252 -105q-102 -104 -129 -283h541z" />
    <glyph glyph-name="afii10054" unicode="&#x405;" horiz-adv-x="1341" 
d="M682 219q123 0 199 48t75 145q0 122 -138 170q-64 22 -208 62t-178 52q-178 56 -242 150t-63 219q0 211 153 326t365 114q530 0 561 -452l-282 -15q-31 217 -271 217q-109 0 -179 -44q-70 -45 -71 -129q0 -84 103 -121q94 -37 383 -117q365 -104 364 -422
q0 -148 -85 -254q-159 -199 -461 -199q-303 0 -457 129t-170 373l278 16q23 -268 324 -268z" />
    <glyph glyph-name="uni0406" unicode="&#x406;" horiz-adv-x="585" 
d="M436 0h-286v1475h286v-1475z" />
    <glyph glyph-name="afii10056" unicode="&#x407;" horiz-adv-x="585" 
d="M629 1620h-271v264h271v-264zM227 1620h-270v264h270v-264zM436 0h-286v1475h286v-1475z" />
    <glyph glyph-name="afii10057" unicode="&#x408;" horiz-adv-x="1136" 
d="M506 219q116 0 154 74t38 221v961h289v-994q0 -262 -129 -387t-347 -125q-218 1 -345 117t-123 352l270 39q6 -258 193 -258z" />
    <glyph glyph-name="afii10058" unicode="&#x409;" horiz-adv-x="2193" 
d="M1313 713v-461h213q293 0 293 229q0 100 -69 166t-220 66h-217zM301 744v731h1012v-523h235q272 0 418 -126t148 -351q0 -169 -86 -279t-211 -153t-285 -43h-508v1214h-442v-395q0 -449 -55 -593q-25 -69 -65 -132q-78 -125 -259 -125q-106 0 -172 37l-11 268
q58 -34 114 -34t94 38q73 74 73 466z" />
    <glyph glyph-name="afii10059" unicode="&#x40a;" horiz-adv-x="2179" 
d="M1282 713v-461h229q293 0 293 229q0 100 -68 166q-69 66 -220 66h-234zM995 1475h287v-523h250q272 0 418 -126t147 -351q0 -169 -86 -279t-211 -153t-284 -43h-521v623h-559v-623h-286v1475h286v-592h559v592z" />
    <glyph glyph-name="afii10060" unicode="&#x40b;" horiz-adv-x="1599" 
d="M809 0h-287v1214h-467v261h1221v-261h-467v-430q100 168 299 168t286 -116t87 -326v-510h-271v502q0 223 -180 223q-94 0 -156 -72t-65 -202v-451z" />
    <glyph glyph-name="afii10061" unicode="&#x40c;" horiz-adv-x="1429" 
d="M547 1645l155 383h328l-252 -383h-231zM150 1475h286v-607h82q66 0 107 32t80 99l161 277q74 123 157 161t200 38h82l-15 -265h-61q-57 0 -96 -24t-84 -103l-103 -178q-78 -135 -180 -151q78 -10 162 -82t153 -185l295 -487h-340l-227 397q-74 127 -145 176
q-72 49 -183 50h-45v-623h-286v1475z" />
    <glyph glyph-name="afii10062" unicode="&#x40e;" horiz-adv-x="1409" 
d="M1114 1884q0 -152 -94 -247t-280 -95t-276 95q-91 95 -91 247h215q6 -158 151 -158q74 0 116 41t44 117h215zM438 -31q-76 0 -150 23t-112 61l70 232q86 -66 166 -66q119 0 170 117l28 65l-590 1074h302l426 -793l350 793h291l-527 -1149q-84 -186 -181 -272t-243 -85z
" />
    <glyph glyph-name="afii10145" unicode="&#x40f;" horiz-adv-x="1507" 
d="M1071 1475h287v-1475h-459v-365h-289v365h-460v1475h286v-1215h635v1215z" />
    <glyph glyph-name="afii10017" unicode="&#x410;" horiz-adv-x="1460" 
d="M729 1122l-217 -587h432zM602 1475h266l572 -1475h-299l-109 293h-610l-109 -293h-293z" />
    <glyph glyph-name="afii10018" unicode="&#x411;" horiz-adv-x="1380" 
d="M436 670v-418h314q250 0 249 215q0 203 -260 203h-303zM150 1475h1046v-261h-760v-290h320q254 0 395 -121t141 -342q0 -291 -227 -401q-124 -60 -311 -60h-604v1475z" />
    <glyph glyph-name="afii10019" unicode="&#x412;" horiz-adv-x="1394" 
d="M430 637v-406h307q276 0 277 195q0 211 -303 211h-281zM430 1243v-375h266q121 0 192 50t70 149q0 100 -74 138q-75 38 -212 38h-242zM752 0h-602v1475h579q236 -1 376 -97t140 -286q0 -111 -57 -197t-174 -125q133 -33 213 -124t80 -220q0 -426 -555 -426z" />
    <glyph glyph-name="afii10020" unicode="&#x413;" horiz-adv-x="1175" 
d="M150 0v1475h970v-261h-684v-1214h-286z" />
    <glyph glyph-name="afii10021" unicode="&#x414;" horiz-adv-x="1597" 
d="M1073 258v956h-461v-61q0 -438 -17 -530q-17 -93 -37 -171q-36 -144 -132 -194h647zM332 1049v426h1028v-1217h170v-623h-287v365h-936v-365h-287v623h72q115 0 167 133q52 135 62 305q11 169 11 353z" />
    <glyph glyph-name="afii10022" unicode="&#x415;" horiz-adv-x="1345" 
d="M1231 0h-1081v1475h1060v-261h-774v-331h672v-260h-672v-363h795v-260z" />
    <glyph glyph-name="afii10024" unicode="&#x416;" horiz-adv-x="2119" 
d="M1204 623v-623h-289v623h-45q-102 1 -163 -47t-121 -179l-178 -397h-340l245 487q55 113 143 184t171 83q-100 16 -178 151l-97 178q-43 78 -84 103t-98 24h-47v265h96q109 0 175 -36t141 -163l155 -277q37 -67 78 -99t106 -32h41v607h289v-607h41q66 0 107 32t80 99
l155 277q72 127 138 163q67 36 176 36h96v-265h-47q-57 0 -99 -24q-41 -25 -82 -103l-98 -178q-72 -135 -178 -151q82 -12 170 -83t143 -184l246 -487h-340l-178 397q-58 129 -120 177t-165 49h-45z" />
    <glyph glyph-name="afii10025" unicode="&#x417;" horiz-adv-x="1290" 
d="M508 637v237h139q209 0 209 187q0 92 -64 143q-65 51 -163 51q-223 0 -258 -217l-262 52q31 196 170 306t350 110t358 -110t148 -304q-1 -117 -59 -201t-156 -121q134 -25 208 -120t74 -218q0 -241 -169 -352t-386 -111q-145 0 -262 41q-117 42 -205 144t-112 260l264 49
q55 -248 309 -248q127 0 202 54q75 53 75 163t-72 158t-184 47h-154z" />
    <glyph glyph-name="afii10026" unicode="&#x418;" horiz-adv-x="1542" 
d="M150 0v1475h286v-1049l649 1049h308v-1475h-287v1059l-649 -1059h-307z" />
    <glyph glyph-name="afii10027" unicode="&#x419;" horiz-adv-x="1542" 
d="M150 0v1475h286v-1049l649 1049h308v-1475h-287v1059l-649 -1059h-307zM1145 1884q0 -152 -94 -247q-93 -95 -279 -95t-277 95t-92 247h215q4 -158 152 -158q74 0 116 41t44 117h215z" />
    <glyph glyph-name="afii10028" unicode="&#x41a;" horiz-adv-x="1429" 
d="M150 0v1475h286v-607h82q66 0 107 32t80 99l161 277q74 123 157 161t200 38h82l-15 -265h-61q-57 0 -96 -24t-84 -103l-103 -178q-78 -135 -180 -151q78 -10 162 -82t153 -185l295 -487h-340l-227 397q-74 127 -145 176q-72 49 -183 50h-45v-623h-286z" />
    <glyph glyph-name="afii10029" unicode="&#x41b;" horiz-adv-x="1523" 
d="M301 744v731h1073v-1475h-289v1214h-503v-395q0 -449 -55 -593q-25 -69 -65 -132q-78 -125 -259 -125q-106 0 -172 37l-11 268q58 -34 114 -34t94 38q73 74 73 466z" />
    <glyph glyph-name="afii10030" unicode="&#x41c;" horiz-adv-x="1853" 
d="M436 0h-286v1475h372l406 -1123l409 1123h367v-1475h-289v1001l-366 -1001h-246l-367 1001v-1001z" />
    <glyph glyph-name="afii10031" unicode="&#x41d;" horiz-adv-x="1513" 
d="M436 0h-286v1475h286v-592h641v592h287v-1475h-287v623h-641v-623z" />
    <glyph glyph-name="afii10032" unicode="&#x41e;" horiz-adv-x="1579" 
d="M385 736q0 -237 108 -377t295 -140q188 0 296 141t108 377t-109 377t-293 141t-295 -141q-110 -141 -110 -378zM88 737q0 338 186 553t516 215t515 -215q186 -215 186 -553t-186 -553t-515 -215t-516 215q-186 215 -186 553z" />
    <glyph glyph-name="afii10033" unicode="&#x41f;" horiz-adv-x="1507" 
d="M436 0h-286v1475h1208v-1475h-287v1214h-635v-1214z" />
    <glyph glyph-name="afii10034" unicode="&#x420;" horiz-adv-x="1366" 
d="M436 1221v-461h260q152 0 220 66t69 167q0 227 -293 228h-256zM436 0h-286v1475h546q160 0 285 -43t211 -154t86 -279q0 -227 -148 -359t-417 -132h-277v-508z" />
    <glyph glyph-name="afii10035" unicode="&#x421;" horiz-adv-x="1513" 
d="M385 737q0 -238 108 -378t298 -140q268 0 350 283l284 -76q-137 -457 -634 -457q-330 0 -517 215q-186 215 -186 554t184 553t512 214q250 0 419 -121t222 -337l-284 -76q-33 141 -124 213t-233 71q-186 0 -292 -140t-107 -378z" />
    <glyph glyph-name="afii10036" unicode="&#x422;" horiz-adv-x="1331" 
d="M809 0h-287v1214h-467v261h1221v-261h-467v-1214z" />
    <glyph glyph-name="afii10037" unicode="&#x423;" horiz-adv-x="1409" 
d="M438 -31q-76 0 -150 23t-112 61l70 232q86 -66 166 -66q119 0 170 117l28 65l-590 1074h302l426 -793l350 793h291l-527 -1149q-84 -186 -181 -272t-243 -85z" />
    <glyph glyph-name="afii10038" unicode="&#x424;" horiz-adv-x="1716" 
d="M365 737q0 -313 350 -321v641q-152 -4 -251 -79t-99 -241zM1352 737q0 311 -351 320v-641q151 4 251 78t100 243zM1001 -31h-286v191q-291 4 -469 148t-178 428t178 429t469 150v190h286v-190q291 -3 469 -149t178 -430t-178 -428t-469 -148v-191z" />
    <glyph glyph-name="afii10039" unicode="&#x425;" horiz-adv-x="1476" 
d="M375 0h-334l541 764l-496 711h354l318 -496l334 496h325l-499 -715l518 -760h-342l-351 545z" />
    <glyph glyph-name="afii10040" unicode="&#x426;" horiz-adv-x="1589" 
d="M1065 1475h287v-1217h170v-623h-287v365h-1085v1475h286v-1215h629v1215z" />
    <glyph glyph-name="afii10041" unicode="&#x427;" horiz-adv-x="1378" 
d="M1229 1475v-1475h-287v580q-147 -80 -358 -80q-276 0 -389 154t-113 442v379h287v-361q0 -197 57 -283t228 -86t288 74v656h287z" />
    <glyph glyph-name="afii10042" unicode="&#x428;" horiz-adv-x="1966" 
d="M1530 1475h287v-1475h-1667v1475h286v-1215h404v1215h286v-1215h404v1215z" />
    <glyph glyph-name="afii10043" unicode="&#x429;" horiz-adv-x="2054" 
d="M1817 1475v-1217h170v-623h-287v365h-1550v1475h286v-1215h404v1215h286v-1215h404v1215h287z" />
    <glyph glyph-name="afii10044" unicode="&#x42a;" horiz-adv-x="1564" 
d="M649 713v-461h248q293 0 293 229q0 100 -69 166t-220 66h-252zM649 1475v-523h271q272 0 418 -126t147 -351q0 -169 -86 -279t-211 -153t-285 -43h-543v1214h-319v261h608z" />
    <glyph glyph-name="afii10045" unicode="&#x42b;" horiz-adv-x="1890" 
d="M436 713v-461h256q293 0 293 229q0 100 -69 166t-220 66h-260zM150 1475h286v-523h277q273 0 419 -126t146 -351q0 -169 -86 -279t-211 -153t-285 -43h-546v1475zM1741 0h-287v1475h287v-1475z" />
    <glyph glyph-name="afii10046" unicode="&#x42c;" horiz-adv-x="1359" 
d="M436 713v-461h256q293 0 293 229q0 100 -69 166t-220 66h-260zM150 1475h286v-523h277q273 0 419 -126t146 -351q0 -169 -86 -279t-211 -153t-285 -43h-546v1475z" />
    <glyph glyph-name="afii10047" unicode="&#x42d;" horiz-adv-x="1513" 
d="M578 637v231h540q-16 178 -116 282t-252 105q-150 -1 -247 -73t-128 -211l-277 76q58 219 226 339t417 119q336 0 510 -212t174 -557t-175 -556t-521 -211q-254 0 -416 120t-225 337l285 76q82 -283 356 -283q172 0 277 112q104 112 112 306h-540z" />
    <glyph glyph-name="afii10048" unicode="&#x42e;" horiz-adv-x="2113" 
d="M1347 1255q-179 0 -279 -140t-101 -379q0 -239 98 -378q97 -139 279 -139t282 140t100 378t-100 378t-279 140zM436 0h-286v1475h286v-592h242q37 283 210 453t460 169q322 0 500 -214t177 -554q0 -340 -178 -554t-486 -214t-481 179t-204 475h-240v-623z" />
    <glyph glyph-name="afii10049" unicode="&#x42f;" horiz-adv-x="1419" 
d="M981 782v432h-197q-110 0 -180 -13t-120 -63t-50 -151q0 -203 346 -205h201zM1270 1475v-1475h-289v537h-125q-139 0 -224 -65t-153 -224l-104 -248h-340l160 342q119 256 317 289q-166 19 -269 125t-104 272q0 231 157 339t411 108h563z" />
    <glyph glyph-name="afii10065" unicode="&#x430;" horiz-adv-x="1130" 
d="M484 174q72 0 142 44q70 45 103 104v176q-59 -24 -180 -48t-167 -57t-45 -95t38 -93t109 -31zM729 698q0 80 -47 129t-143 50q-162 0 -207 -175l-236 72q37 170 163 246t296 76q444 0 444 -441v-438q0 -152 62 -217h-273q-33 29 -47 117q-123 -147 -319 -148
q-154 0 -256 79q-102 80 -102 234t107 234q108 80 299 101t259 53v28z" />
    <glyph glyph-name="afii10066" unicode="&#x431;" horiz-adv-x="1163" 
d="M836 504q0 156 -70 232t-177 75t-179 -77t-72 -231t70 -232t180 -77t178 78q70 76 70 232zM1106 510q0 -252 -146 -396t-375 -144q-228 0 -375 155q-146 156 -147 475q0 823 551 860l279 19q110 12 147 45l-24 -269q-33 -31 -144 -41l-278 -20q-258 -18 -291 -315
q109 163 328 163t347 -140t128 -392z" />
    <glyph glyph-name="afii10067" unicode="&#x432;" horiz-adv-x="1064" 
d="M389 432v-221h113q117 0 172 20t56 90q1 71 -49 91t-194 20h-98zM389 854v-211h70q172 0 208 48q17 25 17 71t-37 69t-162 23h-96zM119 0v1065h426q414 0 413 -285q0 -76 -43 -138t-116 -89q98 -23 153 -97t54 -159q-6 -297 -398 -297h-489z" />
    <glyph glyph-name="afii10068" unicode="&#x433;" horiz-adv-x="905" 
d="M119 0v1065h731v-225h-465v-840h-266z" />
    <glyph glyph-name="afii10069" unicode="&#x434;" horiz-adv-x="1236" 
d="M795 225v615h-295v-217q0 -326 -117 -398h412zM244 692v373h821v-840h141v-497h-260v272h-670v-272h-260v497h39q189 0 189 467z" />
    <glyph glyph-name="afii10070" unicode="&#x435;" horiz-adv-x="1134" 
d="M574 870q-94 0 -162 -59t-80 -164h469q-6 99 -70 161t-157 62zM573 -31q-223 -1 -369 145t-147 418q1 272 147 418t368 146t364 -140t141 -387v-47l-2 -65h-747q8 -129 80 -196t167 -67q181 1 232 158l252 -53q-111 -330 -486 -330z" />
    <glyph glyph-name="afii10072" unicode="&#x436;" horiz-adv-x="1579" 
d="M924 424v-424h-271v424h-20q-49 0 -82 -26t-66 -87l-143 -311h-301l182 354q100 166 193 187v8q-88 22 -138 135q-18 41 -27 59q-9 19 -10 23t-9 17q-7 13 -11 15t-12 11q-8 8 -16 9q-9 1 -21 3t-27 2h-43l-14 242h53q111 0 168 -24q79 -33 134 -157q17 -38 37 -86
t37 -84q32 -63 116 -65h20v416h271v-416h22q85 1 116 65q17 36 47 108q30 73 52 114q51 82 109 106t168 23h53l-14 -242h-43q-29 0 -41 -4q-13 -4 -19 -6t-12 -10t-9 -10q-3 -1 -9 -15t-9 -17q-2 -3 -9 -21q-8 -18 -26 -57q-52 -112 -139 -134v-8q94 -20 195 -187l182 -354
h-301l-143 311q-33 61 -66 87t-82 26h-22z" />
    <glyph glyph-name="afii10073" unicode="&#x437;" horiz-adv-x="995" 
d="M422 453v196q80 0 88 2q117 2 117 109q0 51 -37 84t-104 33q-68 0 -110 -37t-54 -101l-236 47q29 150 136 230q108 80 280 80t284 -82t111 -232q0 -92 -50 -146t-122 -73q89 -14 151 -83t62 -169q0 -170 -126 -256t-310 -86t-300 83t-145 247l248 37q33 -147 197 -148
q82 0 129 36t47 102q0 127 -166 127h-90z" />
    <glyph glyph-name="afii10074" unicode="&#x438;" horiz-adv-x="1189" 
d="M119 0v1065h270v-680l397 680h285v-1065h-270v674l-398 -674h-284z" />
    <glyph glyph-name="afii10075" unicode="&#x439;" horiz-adv-x="1189" 
d="M119 0v1065h270v-680l397 680h285v-1065h-270v674l-398 -674h-284zM930 1475q0 -141 -89 -221t-243 -80t-242 80t-88 221h189q8 -63 47 -95t94 -32t96 32t49 95h187z" />
    <glyph glyph-name="afii10076" unicode="&#x43a;" horiz-adv-x="1120" 
d="M119 0v1065h270v-416h49q102 0 164 80q23 31 61 117t39 90q44 82 106 111t171 28h55l-20 -241h-39q-13 0 -23 -2t-18 -4q-8 -1 -15 -6t-13 -8t-14 -15q-9 -13 -15 -25q-7 -12 -9 -16t-9 -20t-9 -19q-57 -135 -174 -162v-8q139 -33 221 -195l182 -354h-301l-149 311
q-61 113 -185 113h-55v-424h-270z" />
    <glyph glyph-name="afii10077" unicode="&#x43b;" horiz-adv-x="1202" 
d="M242 501v564h841v-1065h-270v840h-315v-367q0 -504 -301 -504q-98 0 -154 31v219q41 -23 82 -23t66 26q51 51 51 279z" />
    <glyph glyph-name="afii10078" unicode="&#x43c;" horiz-adv-x="1478" 
d="M119 0v1065h375l243 -752l275 752h348v-1065h-270v680l-246 -680h-219l-236 692v-692h-270z" />
    <glyph glyph-name="afii10079" unicode="&#x43d;" horiz-adv-x="1171" 
d="M119 0v1065h270v-416h393v416h271v-1065h-271v424h-393v-424h-270z" />
    <glyph glyph-name="afii10080" unicode="&#x43e;" horiz-adv-x="1153" 
d="M328 531q0 -165 66 -251t182 -85q114 0 182 86q68 87 68 251t-68 251t-183 87t-181 -87t-66 -252zM57 532q-1 274 145 418t374 146q228 0 374 -144t146 -420q0 -274 -146 -418t-374 -144t-374 144t-145 418z" />
    <glyph glyph-name="afii10081" unicode="&#x43f;" horiz-adv-x="1169" 
d="M119 0v1065h932v-1065h-271v840h-391v-840h-270z" />
    <glyph glyph-name="afii10082" unicode="&#x440;" horiz-adv-x="1169" 
d="M607 870q-103 0 -171 -88t-69 -252q1 -164 65 -250t172 -85q108 0 174 86q64 87 64 251t-66 251t-169 87zM389 -410h-270v1475h250v-131q97 162 293 162t323 -150t127 -414t-130 -414t-320 -149q-190 0 -273 129v-508z" />
    <glyph glyph-name="afii10083" unicode="&#x441;" horiz-adv-x="1093" 
d="M328 531q0 -165 61 -251t170 -85q174 0 211 194l266 -41q-41 -190 -168 -284t-309 -95q-221 1 -361 145t-141 418q1 274 141 418t361 146q180 0 308 -94t169 -287l-264 -43q-41 199 -213 198q-107 0 -169 -87t-62 -252z" />
    <glyph glyph-name="afii10084" unicode="&#x442;" horiz-adv-x="1007" 
d="M41 840v225h926v-225h-328v-842h-270v842h-328z" />
    <glyph glyph-name="afii10085" unicode="&#x443;" horiz-adv-x="1110" 
d="M285 -430q-62 0 -146 27l-20 239q138 -57 222 5q42 32 73 110l20 59l-414 1055h277l264 -741l262 741h267l-422 -1141q-66 -178 -156 -266t-227 -88z" />
    <glyph glyph-name="afii10086" unicode="&#x444;" horiz-adv-x="1708" 
d="M989 -410h-270v508q-74 -129 -238 -129q-195 0 -309 159q-114 160 -115 406q0 246 110 404t295 158t257 -127v454l270 82v-536q71 127 257 127t296 -158t109 -405q0 -247 -115 -405t-309 -159q-164 0 -238 129v-508zM733 532q0 176 -57 258t-143 80q-87 0 -147 -84
t-60 -257t59 -254t154 -80q194 -1 194 337zM973 532q0 -338 194 -337q94 0 154 80q59 81 59 254t-59 257t-145 84t-145 -81q-58 -81 -58 -257z" />
    <glyph glyph-name="afii10087" unicode="&#x445;" horiz-adv-x="1142" 
d="M344 0h-311l373 545l-349 520h328l193 -328l196 328h305l-338 -514l367 -551h-320l-223 352z" />
    <glyph glyph-name="afii10088" unicode="&#x446;" horiz-adv-x="1222" 
d="M119 0v1065h270v-840h391v840h271v-840h141v-497h-260v272h-813z" />
    <glyph glyph-name="afii10089" unicode="&#x447;" horiz-adv-x="1107" 
d="M74 735v330h270v-240q0 -153 36 -219t146 -66t193 70v455h270v-1065h-270v406q-113 -78 -258 -78q-197 0 -292 107t-95 300z" />
    <glyph glyph-name="afii10090" unicode="&#x448;" horiz-adv-x="1626" 
d="M119 0v1065h270v-840h289v840h270v-840h289v840h270v-1065h-1388z" />
    <glyph glyph-name="afii10091" unicode="&#x449;" horiz-adv-x="1679" 
d="M1507 1065v-840h142v-497h-260v272h-1270v1065h270v-840h289v840h270v-840h289v840h270z" />
    <glyph glyph-name="afii10092" unicode="&#x44a;" horiz-adv-x="1177" 
d="M530 498v-279h97q117 0 173 31q56 30 56 106t-53 109t-158 33h-115zM27 844v221h503v-363h152q449 0 448 -346q0 -174 -118 -265t-269 -91h-483v844h-233z" />
    <glyph glyph-name="afii10093" unicode="&#x44b;" horiz-adv-x="1501" 
d="M389 498v-279h96q117 0 173 31q56 30 56 106t-52 109q-53 33 -158 33h-115zM119 0v1065h270v-363h152q449 0 448 -346q0 -174 -119 -265t-268 -91h-483zM1112 0v1065h270v-1065h-270z" />
    <glyph glyph-name="afii10094" unicode="&#x44c;" horiz-adv-x="1036" 
d="M389 498v-279h96q117 0 173 31q56 30 56 106t-52 109q-53 33 -158 33h-115zM119 0v1065h270v-363h152q449 0 448 -346q0 -174 -119 -265t-268 -91h-483z" />
    <glyph glyph-name="afii10095" unicode="&#x44d;" horiz-adv-x="1093" 
d="M440 438v197h332q-10 115 -72 175t-145 60q-188 0 -223 -198l-264 43q43 190 174 285t313 96q223 0 359 -146t136 -418q0 -274 -140 -418q-142 -144 -369 -145q-184 0 -314 92q-129 92 -170 287l267 41q37 -195 217 -194q96 0 159 58t72 185h-332z" />
    <glyph glyph-name="afii10096" unicode="&#x44e;" horiz-adv-x="1587" 
d="M1032 870q-104 0 -166 -87t-63 -252q0 -165 61 -251q62 -86 166 -85q104 0 167 86q63 87 63 251t-62 251t-166 87zM119 0v1065h270v-416h152q29 217 165 332t338 115t344 -146t142 -418t-142 -417t-345 -145t-340 116q-136 117 -164 338h-150v-424h-270z" />
    <glyph glyph-name="afii10097" unicode="&#x44f;" horiz-adv-x="1091" 
d="M717 575v279h-152q-188 0 -188 -135q0 -78 57 -111t184 -33h99zM514 1065h459v-1065h-256v369h-51q-92 0 -144 -38t-92 -118l-102 -213h-301l131 254q94 184 239 201q-127 2 -213 80t-86 198q0 158 116 245t300 87z" />
    <glyph glyph-name="afii10071" unicode="&#x451;" horiz-adv-x="1134" 
d="M574 870q-94 0 -162 -59t-80 -164h469q-6 99 -70 161t-157 62zM573 -31q-223 -1 -369 145t-147 418q1 272 147 418t368 146t364 -140t141 -387v-47l-2 -65h-747q8 -129 80 -196t167 -67q181 1 232 158l252 -53q-111 -330 -486 -330zM936 1212h-272v263h272v-263z
M489 1212h-272v263h272v-263z" />
    <glyph glyph-name="afii10099" unicode="&#x452;" horiz-adv-x="1253" 
d="M735 207q80 0 105 56t24 159v80q0 223 -180 223q-94 0 -156 -70t-65 -196v-459h-270v1038h-152v213h152v166l270 88v-254h196v-213h-196v-254q96 168 297 168t288 -116t87 -326v-168q0 -170 -88 -271t-254 -102q-92 0 -166 27l37 223q41 -12 71 -12z" />
    <glyph glyph-name="afii10100" unicode="&#x453;" horiz-adv-x="905" 
d="M299 1235l156 383h327l-252 -383h-231zM119 1065h731v-225h-465v-840h-266v1065z" />
    <glyph glyph-name="afii10101" unicode="&#x454;" horiz-adv-x="1107" 
d="M666 635v-197h-334q16 -121 76 -182t151 -61q174 0 211 194l266 -41q-41 -190 -168 -284t-309 -95q-221 1 -361 145t-141 418q1 274 141 418t361 146q180 0 308 -94t169 -287l-264 -43q-41 199 -213 198q-88 0 -147 -59t-78 -176h332z" />
    <glyph glyph-name="afii10102" unicode="&#x455;" horiz-adv-x="995" 
d="M506 180q190 0 190 121q0 78 -100 105l-256 59q-116 27 -188 101t-72 198q0 168 119 250t301 82t292 -88t117 -220l-233 -38q-23 135 -193 135t-170 -111q0 -68 93 -88l258 -59q274 -66 274 -316q0 -168 -123 -255t-315 -87t-311 92q-118 92 -132 246l234 39
q10 -76 64 -121t151 -45z" />
    <glyph glyph-name="afii10103" unicode="&#x456;" horiz-adv-x="507" 
d="M389 0h-270v1065h270v-1065zM389 1217h-270v258h270v-258z" />
    <glyph glyph-name="afii10104" unicode="&#x457;" horiz-adv-x="507" 
d="M569 1217h-256v258h256v-258zM389 0h-270v1065h270v-1065zM195 1217h-256v258h256v-258z" />
    <glyph glyph-name="afii10105" unicode="&#x458;" horiz-adv-x="507" 
d="M389 1217h-270v258h270v-258zM119 23v1042h270v-1122q0 -169 -88 -271t-254 -102q-92 0 -166 27l37 223q41 -12 72 -13q80 1 104 57t25 159z" />
    <glyph glyph-name="afii10106" unicode="&#x459;" horiz-adv-x="1720" 
d="M1071 498v-279h90q117 0 173 31q56 30 56 106t-52 109q-54 33 -158 33h-109zM242 501v564h829v-363h146q449 0 448 -346q0 -174 -119 -265t-268 -91h-477v840h-303v-367q0 -504 -301 -504q-98 0 -154 31v219q41 -23 82 -23t66 26q51 51 51 279z" />
    <glyph glyph-name="afii10107" unicode="&#x45a;" horiz-adv-x="1681" 
d="M1040 498v-279h90q117 0 174 31q56 30 56 106t-53 109t-158 33h-109zM119 0v1065h270v-416h381v416h270v-363h146q449 0 448 -346q0 -174 -118 -265t-269 -91h-477v424h-381v-424h-270z" />
    <glyph glyph-name="afii10108" unicode="&#x45b;" horiz-adv-x="1253" 
d="M463 0h-270v1038h-152v213h152v166l270 88v-254h196v-213h-196v-254q96 168 297 168t288 -116t87 -326v-510h-271v502q0 223 -180 223q-94 0 -156 -70t-65 -196v-459z" />
    <glyph glyph-name="afii10109" unicode="&#x45c;" horiz-adv-x="1120" 
d="M395 1235l156 383h328l-252 -383h-232zM119 1065h270v-416h49q102 0 164 80q23 31 61 117t39 90q44 82 106 111t171 28h55l-20 -241h-39q-13 0 -23 -2t-18 -4q-8 -1 -15 -6t-13 -8t-14 -15q-9 -13 -15 -25q-7 -12 -9 -16t-9 -20t-9 -19q-57 -135 -174 -162v-8
q139 -33 221 -195l182 -354h-301l-149 311q-61 113 -185 113h-55v-424h-270v1065z" />
    <glyph glyph-name="afii10110" unicode="&#x45e;" horiz-adv-x="1110" 
d="M895 1475q0 -141 -89 -221t-243 -80q-153 0 -241 80t-89 221h187q8 -63 48 -95t95 -32t95 32t49 95h188zM285 -430q-62 0 -146 27l-20 239q138 -57 222 5q42 32 73 110l20 59l-414 1055h277l264 -741l262 741h267l-422 -1141q-66 -178 -156 -266t-227 -88z" />
    <glyph glyph-name="afii10193" unicode="&#x45f;" horiz-adv-x="1169" 
d="M1051 1065v-1065h-332v-272h-260v272h-340v1065h270v-840h391v840h271z" />
    <glyph glyph-name="afii10050" unicode="&#x490;" horiz-adv-x="1175" 
d="M150 0v1475h681v266h289v-527h-684v-1214h-286z" />
    <glyph glyph-name="afii10098" unicode="&#x491;" horiz-adv-x="905" 
d="M119 0v1065h485v225h246v-450h-465v-840h-266z" />
    <glyph glyph-name="endash" unicode="&#x2013;" horiz-adv-x="1138" 
d="M1071 424h-1003v225h1003v-225z" />
    <glyph glyph-name="emdash" unicode="&#x2014;" horiz-adv-x="1576" 
d="M1577 424h-1577v225h1577v-225z" />
    <glyph glyph-name="quoteleft" unicode="&#x2018;" horiz-adv-x="509" 
d="M250 1192h143v-277h-278v277q0 231 188 313l70 -114q-123 -54 -123 -199z" />
    <glyph glyph-name="quoteright" unicode="&#x2019;" horiz-adv-x="509" 
d="M260 1198h-141v277h276v-277q0 -231 -188 -313l-68 114q121 52 121 199z" />
    <glyph glyph-name="quotesinglbase" unicode="&#x201a;" horiz-adv-x="509" 
d="M260 0h-141v276h276v-276q0 -231 -188 -313l-68 114q121 52 121 199z" />
    <glyph glyph-name="quotedblleft" unicode="&#x201c;" horiz-adv-x="888" 
d="M250 1192h143v-277h-278v277q0 231 188 313l70 -114q-123 -54 -123 -199zM629 1192h143v-277h-278v277q0 231 188 313l70 -114q-123 -54 -123 -199z" />
    <glyph glyph-name="quotedblright" unicode="&#x201d;" horiz-adv-x="888" 
d="M639 1198h-141v277h276v-277q0 -231 -188 -313l-68 114q121 52 121 199zM260 1198h-141v277h276v-277q0 -231 -188 -313l-68 114q121 52 121 199z" />
    <glyph glyph-name="quotedblbase" unicode="&#x201e;" horiz-adv-x="888" 
d="M639 0h-141v276h276v-276q0 -231 -188 -313l-68 114q121 52 121 199zM260 0h-141v276h276v-276q0 -231 -188 -313l-68 114q121 52 121 199z" />
    <glyph glyph-name="dagger" unicode="&#x2020;" horiz-adv-x="802" 
d="M68 1024v225h198v226h271v-226h198v-225h-198v-481h-271v481h-198z" />
    <glyph glyph-name="daggerdbl" unicode="&#x2021;" horiz-adv-x="774" 
d="M707 944v-225h-185v-176h-270v176h-184v225h184v129h-184v225h184v177h270v-177h185v-225h-185v-129h185z" />
    <glyph glyph-name="bullet" unicode="&#x2022;" horiz-adv-x="794" 
d="M143 718q0 105 75 179t179 74q103 0 179 -74t76 -179t-74 -179t-180 -74t-181 74q-74 74 -74 179z" />
    <glyph glyph-name="ellipsis" unicode="&#x2026;" horiz-adv-x="1312" 
d="M1198 0h-272v276h272v-276zM793 0h-273v276h273v-276zM387 0h-272v276h272v-276z" />
    <glyph glyph-name="perthousand" unicode="&#x2030;" horiz-adv-x="2377" 
d="M1997 469q-45 1 -79 -35t-34 -107t34 -106t79 -35t79 35t33 107q1 72 -33 106t-79 35zM1683 328q-1 154 89 246t225 92t224 -92t89 -246t-89 -246t-224 -92t-225 92t-89 246zM1272 469q-45 1 -79 -35t-34 -107t34 -106t79 -35t79 35t33 107q0 72 -34 106t-78 35zM958 328
q0 154 90 246t224 92q135 0 224 -92t89 -246t-89 -246t-224 -92q-134 0 -224 92t-90 246zM381 1288q-45 0 -79 -36t-34 -106q0 -71 34 -106q34 -34 79 -34t79 34t34 107t-34 107t-79 34zM68 1147q0 154 89 246t224 92t224 -92t89 -246t-89 -246t-224 -92t-224 92t-89 246z
M303 0l791 1475h256l-793 -1475h-254z" />
    <glyph glyph-name="guilsinglleft" unicode="&#x2039;" horiz-adv-x="673" 
d="M53 539l277 346h291l-275 -346l275 -346h-291z" />
    <glyph glyph-name="guilsinglright" unicode="&#x203a;" horiz-adv-x="673" 
d="M344 885l277 -346l-277 -346h-291l275 346l-275 346h291z" />
    <glyph glyph-name="Euro" unicode="&#x20ac;" 
d="M469 522q28 -307 206 -307q91 1 137 63t69 195l274 -37q-29 -225 -149 -346t-333 -121q-212 -1 -334 147t-149 406h-176v154h166v133h-166v154h176q29 254 151 398t333 144t332 -122t149 -349l-274 -39q-23 135 -69 200t-132 65q-178 0 -209 -297h266v-154h-274v-133h274
v-154h-268z" />
    <glyph glyph-name="afii61352" unicode="&#x2116;" horiz-adv-x="2217" 
d="M428 0h-278v1475h290l678 -1002v1002h279v-1475h-291l-678 1001v-1001zM2157 309h-627v197h627v-197zM1731 941q-1 -71 33 -105t79 -35q45 0 79 35q34 34 34 106t-34 107t-79 35t-79 -36q-33 -36 -33 -107zM1530 942q0 154 89 246t224 92t224 -92t89 -246t-88 -246
q-90 -92 -225 -92t-224 92t-89 246z" />
    <glyph glyph-name="trademark" unicode="&#x2122;" horiz-adv-x="1443" 
d="M801 885h-183v415h-178v-415h-182v415h-197v175h818l122 -379l129 379h252v-590h-182v356l-119 -356h-159l-121 356v-356z" />
    <glyph glyph-name="CR" horiz-adv-x="569" 
 />
    <glyph glyph-name=".grave" horiz-adv-x="1024" 
d="M9423 530q0 102 -25 211l74 17v-451l-74 17q25 104 25 206zM8956 942q-121 0 -212 -104t-91 -307q0 -204 86 -306t217 -102q209 0 264 239l178 -38q-43 -170 -156 -263q-114 -92 -286 -92q-223 0 -355 151q-133 150 -133 412t132 413t356 151q170 0 285 -94t157 -261
l-178 -41q-55 242 -264 242zM9220 700q18 -70 18 -167t-18 -171l-113 27v287z" />
    <glyph glyph-name="percent" horiz-adv-x="1652" 
d="M1272 469q-45 1 -79 -35t-34 -107t34 -106t79 -35t79 35t33 107q0 72 -34 106t-78 35zM958 328q0 154 90 246t224 92q135 0 224 -92t89 -246t-89 -246t-224 -92q-134 0 -224 92t-90 246zM381 1288q-45 0 -79 -36t-34 -106q0 -71 34 -106q34 -34 79 -34t79 34t34 107
t-34 107t-79 34zM68 1147q0 154 89 246t224 92t224 -92t89 -246t-89 -246t-224 -92t-224 92t-89 246zM303 0l791 1475h256l-793 -1475h-254z" />
    </font>
</defs>
</svg>
